<svg xmlns="http://www.w3.org/2000/svg" width="4096" height="4096" viewBox="0 0 4096 4096">
<g fill="none" stroke="#33BBD0" stroke-width="1">
<polygon points="2777.25,2560.01 2636.46,2591.62 2634.51,2825.95 2767.90,2795.70"/>
<polygon points="3397.49,3489.31 3390.30,3295.71 3314.73,3330.54 3332.47,3470.23"/>
<polygon points="1009.00,1274.74 1015.21,1575.69 1112.57,1592.94 1090.81,1359.60"/>
<polygon points="3731.92,747.04 3723.81,562.00 3663.09,558.43 3657.02,771.75"/>
<polygon points="1046.65,2230.44 1093.79,2849.68 1112.57,2841.67 1073.39,2202.43"/>
<polygon points="2770.37,3382.73 2702.53,3430.66 2757.14,4071.42 2777.25,4061.45"/>
<polygon points="3390.30,3295.71 3365.61,3070.48 3284.77,3097.90 3314.73,3330.54"/>
<polygon points="592.77,324.94 588.87,469.39 635.88,555.80 635.88,314.63"/>
<polygon points="2766.47,2346.88 2667.07,2352.40 2636.46,2591.62 2777.25,2560.01"/>
<polygon points="2772.16,2936.29 2652.55,2967.09 2659.69,3030.34 2770.86,2998.04"/>
<polygon points="1036.50,1756.54 1009.23,1844.64 1087.24,1799.94 1109.47,1734.67"/>
<polygon points="1729.85,1158.78 1710.49,711.94 1651.57,736.19 1701.00,1117.25"/>
<polygon points="1046.65,2230.44 1009.23,1844.64 955.87,1862.76 1000.20,2235.96"/>
<polygon points="3397.49,3489.31 3477.20,3489.31 3477.20,3295.71 3390.30,3295.71"/>
<polygon points="3365.61,3070.48 3390.30,3295.71 3477.20,3295.71 3477.20,3070.78"/>
<polygon points="3421.18,2882.53 3365.61,3070.48 3477.20,3070.78 3477.20,2882.53"/>
<polygon points="1729.85,1158.78 1749.05,1789.47 1769.60,1789.47 1769.60,1158.78"/>
<polygon points="2044.52,165.38 2022.88,165.38 2016.87,184.97 2016.87,205.51 2052.08,205.51 2052.08,184.97"/>
<polygon points="1489.53,917.57 1424.23,771.85 1368.21,771.54 1367.58,886.73"/>
<polygon points="1878.03,783.65 1904.19,530.91 1824.02,532.80 1824.02,789.45"/>
<polygon points="3424.84,2702.84 3379.80,2699.86 3368.87,2777.11 3421.18,2764.43"/>
<polygon points="1467.07,585.13 1422.70,585.28 1424.94,642.33 1478.25,661.94"/>
<polygon points="2664.56,2245.51 2752.29,2244.46 2736.72,2168.93 2671.95,2169.27"/>
<polygon points="1422.70,585.28 1369.23,585.13 1368.92,642.04 1424.94,642.33"/>
<polygon points="3477.20,2702.85 3424.84,2702.84 3421.18,2764.43 3477.20,2764.19"/>
<polygon points="3281.66,564.06 3281.66,511.70 3160.26,511.70 3160.25,565.17 3182.40,609.54 3247.58,609.10"/>
<polygon points="2667.07,2352.40 2766.47,2346.88 2752.29,2244.46 2664.56,2245.51"/>
<polygon points="3663.09,558.43 3723.81,562.00 3706.90,444.26 3657.02,455.21"/>
<polygon points="3421.18,2882.53 3477.20,2882.53 3477.20,2764.19 3421.18,2764.43"/>
<polygon points="1368.21,771.54 1424.23,771.85 1424.94,642.33 1368.92,642.04"/>
<polygon points="1424.23,771.85 1477.66,768.87 1478.25,661.94 1424.94,642.33"/>
<polygon points="651.33,165.93 670.26,109.93 642.14,100.43 616.62,175.94"/>
<polygon points="1015.21,1575.69 1036.50,1756.54 1109.47,1734.67 1112.57,1592.94"/>
<polygon points="2767.90,2795.70 2634.51,2825.95 2652.55,2967.09 2772.16,2936.29"/>
<polygon points="651.33,165.93 616.62,175.94 619.83,245.65 670.26,234.52"/>
<polygon points="1710.49,711.94 1729.85,1158.78 1769.60,1158.78 1769.60,711.94"/>
<polygon points="1093.79,2849.68 1046.65,2230.44 1000.20,2235.96 1073.39,2852.10"/>
<polygon points="1749.05,1789.47 1729.85,1158.78 1701.00,1117.25 1729.46,1793.05"/>
<polygon points="2770.86,2998.04 2659.69,3030.34 2702.53,3430.66 2770.37,3382.73"/>
<polygon points="1009.23,1844.64 1046.65,2230.44 1073.39,2202.43 1087.24,1799.94"/>
<polygon points="1916.81,790.30 1946.14,490.71 1904.19,530.91 1878.03,783.65"/>
<polygon points="1879.15,1056.66 1916.62,972.39 1875.67,968.61 1853.98,1019.54"/>
<polygon points="1824.02,1068.36 1879.15,1056.66 1853.98,1019.54 1824.02,1031.22"/>
<polygon points="1946.14,490.71 1824.02,460.54 1824.02,532.80 1904.19,530.91"/>
<polygon points="1916.62,972.39 1916.81,790.30 1878.03,783.65 1875.67,968.61"/>
<polygon points="1853.98,1019.54 1875.67,968.61 1878.03,783.65 1824.02,789.45 1824.02,1031.22"/>
<polygon points="2442.62,2560.01 2451.97,2795.70 2585.36,2825.95 2583.40,2591.62"/>
<polygon points="3180.03,2119.77 3245.05,2100.70 3262.79,1961.00 3187.22,1926.17"/>
<polygon points="1265.29,1274.74 1183.48,1359.60 1161.72,1592.94 1259.08,1575.69"/>
<polygon points="1694.70,638.09 1769.60,662.79 1763.53,449.48 1702.81,453.04"/>
<polygon points="1227.65,2230.44 1200.90,2202.43 1161.72,2841.67 1180.50,2849.68"/>
<polygon points="2449.50,3382.73 2442.62,4061.45 2462.73,4071.42 2517.34,3430.66"/>
<polygon points="3187.22,1926.17 3262.79,1961.00 3292.75,1728.36 3211.91,1700.95"/>
<polygon points="1600.89,305.12 1557.78,294.81 1557.78,535.98 1604.80,449.57"/>
<polygon points="2453.39,2346.88 2442.62,2560.01 2583.40,2591.62 2552.80,2352.40"/>
<polygon points="2447.71,2936.29 2449.00,2998.04 2560.18,3030.34 2567.32,2967.09"/>
<polygon points="1237.79,1756.54 1164.82,1734.67 1187.06,1799.94 1265.06,1844.64"/>
<polygon points="3381.65,1485.50 3410.50,1443.98 3459.93,1062.91 3401.01,1038.67"/>
<polygon points="1227.65,2230.44 1274.09,2235.96 1318.43,1862.76 1265.06,1844.64"/>
<polygon points="3180.03,2119.77 3187.22,1926.17 3100.32,1926.17 3100.32,2119.77"/>
<polygon points="3211.91,1700.95 3100.32,1701.25 3100.32,1926.17 3187.22,1926.17"/>
<polygon points="3156.34,1513.00 3100.32,1513.00 3100.32,1701.25 3211.91,1700.95"/>
<polygon points="3381.65,1485.50 3341.90,1485.50 3341.90,2116.19 3362.45,2116.19"/>
<polygon points="2044.52,245.65 2052.08,226.06 2052.08,205.51 2016.87,205.51 2016.87,226.06 2022.88,245.65"/>
<polygon points="685.38,682.76 807.34,651.91 806.71,536.73 750.69,537.04"/>
<polygon points="2063.40,783.65 2117.42,789.45 2117.42,532.80 2037.24,530.91"/>
<polygon points="3152.68,1333.31 3156.34,1394.89 3208.65,1407.57 3197.72,1330.32"/>
<polygon points="707.85,350.32 696.67,427.13 749.98,407.52 752.22,350.47"/>
<polygon points="2555.30,2245.50 2547.91,2169.27 2483.14,2168.93 2467.58,2244.46"/>
<polygon points="752.22,350.47 749.98,407.52 806.00,407.23 805.69,350.32"/>
<polygon points="3100.32,1333.32 3100.32,1394.66 3156.34,1394.89 3152.68,1333.31"/>
<polygon points="3281.66,459.35 3247.58,414.30 3182.40,413.87 3160.25,458.24 3160.26,511.70 3281.66,511.70"/>
<polygon points="2552.80,2352.40 2555.30,2245.50 2467.58,2244.46 2453.39,2346.88"/>
<polygon points="1763.53,449.48 1769.60,346.25 1719.72,335.30 1702.81,453.04"/>
<polygon points="3156.34,1513.00 3156.34,1394.89 3100.32,1394.66 3100.32,1513.00"/>
<polygon points="806.71,536.73 806.00,407.23 749.98,407.52 750.69,537.04"/>
<polygon points="750.69,537.04 749.98,407.52 696.67,427.13 697.26,534.06"/>
<polygon points="738.33,165.93 773.05,175.94 747.53,100.43 719.41,109.93"/>
<polygon points="1259.08,1575.69 1161.72,1592.94 1164.82,1734.67 1237.79,1756.54"/>
<polygon points="2451.97,2795.70 2447.71,2936.29 2567.32,2967.09 2585.36,2825.95"/>
<polygon points="738.33,165.93 719.41,234.52 769.84,245.65 773.05,175.94"/>
<polygon points="3401.01,1038.67 3341.90,1038.67 3341.90,1485.50 3381.65,1485.50"/>
<polygon points="1180.50,2849.68 1200.90,2852.10 1274.09,2235.96 1227.65,2230.44"/>
<polygon points="3362.45,2116.19 3382.04,2119.77 3410.50,1443.98 3381.65,1485.50"/>
<polygon points="2449.00,2998.04 2449.50,3382.73 2517.34,3430.66 2560.18,3030.34"/>
<polygon points="1265.06,1844.64 1187.06,1799.94 1200.90,2202.43 1227.65,2230.44"/>
<polygon points="2024.62,790.30 2063.40,783.65 2037.24,530.91 1995.29,490.71"/>
<polygon points="2062.28,1056.66 2087.45,1019.54 2065.76,968.61 2024.81,972.39"/>
<polygon points="2117.42,1068.36 2117.42,1031.22 2087.45,1019.54 2062.28,1056.66"/>
<polygon points="1995.29,490.71 2037.24,530.91 2117.42,532.80 2117.42,460.54"/>
<polygon points="2024.81,972.39 2065.76,968.61 2063.40,783.65 2024.62,790.30"/>
<polygon points="2087.45,1019.54 2117.42,1031.22 2117.42,789.45 2063.40,783.65 2065.76,968.61"/>
<polygon points="1222.97,601.49 1242.89,614.47 1297.73,381.84 1222.97,344.73"/>
<polygon points="604.42,3846.78 668.63,4068.88 694.59,4066.34 712.72,3838.66"/>
<polygon points="1487.91,2147.50 1560.79,2146.64 1571.55,2018.38 1487.18,2019.53"/>
<polygon points="1548.71,2588.54 1506.74,2375.64 1489.08,2375.84 1490.85,2586.15"/>
<polygon points="1547.55,2646.58 1490.41,2644.98 1482.62,2851.66 1524.99,2851.96"/>
<polygon points="532.35,300.12 513.52,401.07 519.76,499.20 532.35,679.40"/>
<polygon points="2344.47,1388.55 2342.82,1448.60 2389.11,1446.03 2393.47,1385.08"/>
<polygon points="1029.82,101.41 1029.82,245.65 1064.09,245.55 1049.23,103.88"/>
<polygon points="2341.99,825.36 2349.88,1202.72 2388.84,1197.68 2374.33,833.13"/>
<polygon points="509.27,3852.03 642.66,4071.42 668.63,4068.88 604.42,3846.78"/>
<polygon points="438.85,3773.51 421.58,3833.01 439.33,3832.90 454.44,3773.33"/>
<polygon points="421.58,3833.01 358.87,4071.42 374.46,4069.87 439.33,3832.90"/>
<polygon points="432.21,3307.52 433.60,3406.54 444.13,3405.06 443.16,3306.32"/>
<polygon points="357.29,3068.63 405.52,3208.50 416.89,3207.57 369.95,3067.68"/>
<polygon points="2342.82,1448.60 2293.57,1453.29 2292.55,1692.74"/>
<polygon points="421.58,3833.01 348.40,3869.06 304.63,4070.25 358.87,4071.42"/>
<polygon points="2344.47,1388.55 2294.82,1393.13 2293.57,1453.29 2342.82,1448.60"/>
<polygon points="438.85,3773.51 355.67,3814.36 348.40,3869.06 421.58,3833.01"/>
<polygon points="2328.49,691.20 2298.31,691.44 2296.73,829.33 2341.99,825.36"/>
<polygon points="2346.85,922.52 2296.27,926.93 2295.92,1025.56 2351.81,1020.71"/>
<polygon points="432.21,3307.52 374.82,3345.12 358.19,3443.81 433.60,3406.54"/>
<polygon points="595.24,3796.38 604.42,3846.78 712.72,3838.66 712.09,3787.61"/>
<polygon points="503.59,3792.49 509.27,3852.03 604.42,3846.78 595.24,3796.38"/>
<polygon points="522.21,3236.08 503.59,3604.66 606.82,3592.04 618.08,3230.51"/>
<polygon points="618.08,3230.51 606.82,3592.04 708.17,3578.21 682.29,3227.11"/>
<polygon points="540.80,3094.85 522.21,3236.08 618.08,3230.51 612.54,3117.80"/>
<polygon points="433.60,3406.54 358.19,3443.81 340.44,3602.86 435.85,3587.10"/>
<polygon points="2351.81,1020.71 2295.92,1025.56 2298.97,1206.99 2349.88,1202.72"/>
<polygon points="1507.60,65.34 1507.60,245.65 1518.31,244.93 1518.04,63.47"/>
<polygon points="612.54,3117.80 667.01,3114.39 659.45,3047.71 616.43,3050.41"/>
<polygon points="659.45,3047.71 639.12,2917.66 608.13,2927.41 616.43,3050.41"/>
<polygon points="338.11,3001.92 280.61,2916.59 326.76,3003.28"/>
<polygon points="2116.24,129.32 2101.23,242.71 2116.24,245.65"/>
<polygon points="608.13,2927.41 553.47,3030.11 616.43,3050.41"/>
<polygon points="2316.10,543.40 2292.55,544.18 2293.28,627.09 2322.22,627.02"/>
<polygon points="1943.23,170.65 1933.97,201.02 1967.72,204.42 1967.72,162.34"/>
<polygon points="245.16,2963.07 326.76,3003.28 280.61,2916.59 241.44,2912.91"/>
<polygon points="618.08,3230.51 682.29,3227.11 667.01,3114.39 612.54,3117.80"/>
<polygon points="553.47,3030.11 540.80,3094.85 612.54,3117.80 616.43,3050.41"/>
<polygon points="2322.22,627.02 2293.28,627.09 2298.31,691.44 2328.49,691.20"/>
<polygon points="326.76,3003.28 357.29,3068.63 369.95,3067.68 338.11,3001.92"/>
<polygon points="2322.22,627.02 2328.49,691.20 2350.04,697.54 2340.15,635.75"/>
<polygon points="1587.96,2136.75 1588.93,2023.28 1571.55,2018.38 1560.79,2146.64"/>
<polygon points="1535.55,2852.03 1568.55,2648.71 1547.55,2646.58 1524.99,2851.96"/>
<polygon points="1572.73,2592.34 1543.96,2380.15 1506.74,2375.64 1548.71,2588.54"/>
<polygon points="291.28,3069.42 326.66,3123.17 357.29,3068.63 326.76,3003.28"/>
<polygon points="1519.63,1865.50 1508.10,1879.71 1551.76,1924.13 1559.19,1914.56"/>
<polygon points="357.29,3068.63 326.66,3123.17 366.14,3246.43 405.52,3208.50"/>
<polygon points="1519.63,1865.50 1488.31,1860.48 1487.31,1878.76 1508.10,1879.71"/>
<polygon points="1588.93,2023.28 1559.19,1914.56 1551.76,1924.13 1571.55,2018.38"/>
<polygon points="249.45,3060.26 291.28,3069.42 326.76,3003.28 245.16,2963.07"/>
<polygon points="1487.18,2019.53 1571.55,2018.38 1551.76,1924.13 1508.10,1879.71 1487.31,1878.76"/>
<polygon points="1543.96,2380.15 1561.69,2250.26 1524.71,2274.93 1506.74,2375.64"/>
<polygon points="1489.08,2375.84 1506.74,2375.64 1524.71,2274.93 1488.63,2275.47"/>
<polygon points="1568.55,2648.71 1572.73,2592.34 1548.71,2588.54 1547.55,2646.58"/>
<polygon points="503.59,3604.66 503.59,3792.49 595.24,3796.38 606.82,3592.04"/>
<polygon points="606.82,3592.04 595.24,3796.38 712.09,3787.61 708.17,3578.21"/>
<polygon points="435.85,3587.10 340.44,3602.86 355.67,3814.36 438.85,3773.51"/>
<polygon points="2349.88,1202.72 2298.97,1206.99 2294.82,1393.13 2344.47,1388.55"/>
<polygon points="435.85,3587.10 438.85,3773.51 454.44,3773.33 444.67,3586.68"/>
<polygon points="2349.88,1202.72 2344.47,1388.55 2393.47,1385.08 2388.84,1197.68"/>
<polygon points="1547.55,2646.58 1548.71,2588.54 1490.85,2586.15 1490.41,2644.98"/>
<polygon points="3806.50,493.32 3797.87,511.84 3781.08,572.73 3792.13,580.64 3803.18,588.55 3803.03,632.54 3812.87,632.54 3812.87,605.42 3812.88,578.30"/>
<polygon points="1561.69,2250.26 1587.96,2136.75 1560.79,2146.64 1524.71,2274.93"/>
<polygon points="405.52,3208.50 366.14,3246.43 374.82,3345.12 432.21,3307.52"/>
<polygon points="2341.99,825.36 2296.73,829.33 2296.27,926.93 2346.85,922.52"/>
<polygon points="405.52,3208.50 432.21,3307.52 443.16,3306.32 416.89,3207.57"/>
<polygon points="1488.63,2275.47 1524.71,2274.93 1560.79,2146.64 1487.91,2147.50"/>
<polygon points="1598.67,2225.58 1615.14,2126.86 1587.96,2136.75 1561.69,2250.26"/>
<polygon points="1589.56,2650.85 1596.75,2596.13 1572.73,2592.34 1568.55,2648.71"/>
<polygon points="1581.18,2384.66 1598.67,2225.58 1561.69,2250.26 1543.96,2380.15"/>
<polygon points="1606.30,2028.19 1566.62,1904.99 1559.19,1914.56 1588.93,2023.28"/>
<polygon points="1531.16,1851.30 1489.31,1842.20 1488.31,1860.48 1519.63,1865.50"/>
<polygon points="1531.16,1851.30 1519.63,1865.50 1559.19,1914.56 1566.62,1904.99"/>
<polygon points="1596.75,2596.13 1581.18,2384.66 1543.96,2380.15 1572.73,2592.34"/>
<polygon points="1546.12,2852.10 1589.56,2650.85 1568.55,2648.71 1535.55,2852.03"/>
<polygon points="1615.14,2126.86 1606.30,2028.19 1588.93,2023.28 1587.96,2136.75"/>
<polygon points="2655.33,493.93 2652.23,785.91 2715.68,737.23 2652.23,492.72"/>
<polygon points="818.62,3827.79 712.72,3838.66 694.59,4066.34 720.59,4064.27"/>
<polygon points="1487.91,2147.50 1487.18,2019.53 1398.06,2018.66 1411.23,2146.87"/>
<polygon points="1431.12,2588.73 1490.85,2586.15 1489.08,2375.84 1470.37,2375.70"/>
<polygon points="1431.18,2646.76 1440.16,2852.10 1482.62,2851.66 1490.41,2644.98"/>
<polygon points="886.20,305.28 886.20,682.76 902.03,502.87 906.71,404.76"/>
<polygon points="3561.32,1840.44 3509.08,1834.29 3511.96,1893.46 3559.56,1896.93"/>
<polygon points="3560.93,1132.02 3537.12,1136.35 3519.93,1277.88 3557.04,1274.40"/>
<polygon points="3557.04,1274.40 3519.93,1277.88 3512.54,1646.92 3553.45,1653.49"/>
<polygon points="905.04,3816.94 818.62,3827.79 720.59,4064.27 746.59,4062.21"/>
<polygon points="43.66,3773.51 24.58,3773.33 40.39,3832.90 60.93,3833.01"/>
<polygon points="60.93,3833.01 40.39,3832.90 105.98,4069.87 126.09,4071.42"/>
<polygon points="51.45,3307.52 35.04,3306.32 34.27,3405.06 50.35,3406.54"/>
<polygon points="125.09,3068.63 107.29,3067.68 61.12,3207.57 77.86,3208.50"/>
<polygon points="3559.56,1896.93 3588.97,2119.77 3605.02,1897.73"/>
<polygon points="60.93,3833.01 126.09,4071.42 189.28,4070.25 159.69,3869.06"/>
<polygon points="3561.32,1840.44 3559.56,1896.93 3605.02,1897.73 3607.87,1841.78"/>
<polygon points="43.66,3773.51 60.93,3833.01 159.69,3869.06 153.54,3814.36"/>
<polygon points="3560.93,1132.02 3557.04,1274.40 3602.21,1277.96 3591.10,1132.05"/>
<polygon points="3557.95,1376.37 3552.92,1473.92 3607.59,1477.24 3607.87,1379.81"/>
<polygon points="51.45,3307.52 50.35,3406.54 147.38,3443.81 127.26,3345.12"/>
<polygon points="827.03,3775.84 712.09,3787.61 712.72,3838.66 818.62,3827.79"/>
<polygon points="906.71,3756.75 827.03,3775.84 818.62,3827.79 905.04,3816.94"/>
<polygon points="818.18,3209.84 746.18,3219.15 809.63,3574.06 884.08,3570.93"/>
<polygon points="746.18,3219.15 682.29,3227.11 708.17,3578.21 809.63,3574.06"/>
<polygon points="771.25,3074.42 721.25,3108.16 746.18,3219.15 818.18,3209.84"/>
<polygon points="50.35,3406.54 46.65,3587.10 170.84,3602.86 147.38,3443.81"/>
<polygon points="3552.92,1473.92 3553.45,1653.49 3603.40,1656.51 3607.59,1477.24"/>
<polygon points="50.35,3406.54 34.27,3405.06 32.14,3586.68 46.65,3587.10"/>
<polygon points="721.25,3108.16 702.28,3042.80 659.45,3047.71 667.01,3114.39"/>
<polygon points="659.45,3047.71 702.28,3042.80 667.81,2922.12 639.12,2917.66"/>
<polygon points="141.87,3001.92 156.87,3003.28 199.86,2916.59"/>
<polygon points="3551.66,964.84 3542.91,1071.05 3561.93,1063.27"/>
<polygon points="667.81,2922.12 702.28,3042.80 746.30,3013.01"/>
<polygon points="3551.66,964.84 3561.93,1063.27 3588.88,1061.30 3576.98,967.11"/>
<polygon points="1936.99,232.63 1959.33,245.65 1967.72,204.42 1933.97,201.02"/>
<polygon points="245.16,2963.07 241.44,2912.91 199.86,2916.59 156.87,3003.28"/>
<polygon points="746.18,3219.15 721.25,3108.16 667.01,3114.39 682.29,3227.11"/>
<polygon points="746.30,3013.01 702.28,3042.80 721.25,3108.16 771.25,3074.42"/>
<polygon points="3561.93,1063.27 3560.93,1132.02 3591.10,1132.05 3588.88,1061.30"/>
<polygon points="156.87,3003.28 141.87,3001.92 107.29,3067.68 125.09,3068.63"/>
<polygon points="3561.93,1063.27 3542.91,1071.05 3537.12,1136.35 3560.93,1132.02"/>
<polygon points="1389.40,2137.07 1411.23,2146.87 1398.06,2018.66 1385.33,2023.61"/>
<polygon points="833.65,244.61 844.65,245.65 844.65,39.36 833.42,40.82"/>
<polygon points="1412.87,2592.59 1431.12,2588.73 1470.37,2375.70 1440.97,2380.31"/>
<polygon points="206.06,3069.42 156.87,3003.28 125.09,3068.63 169.88,3123.17"/>
<polygon points="1456.09,1865.61 1415.83,1914.79 1421.80,1924.33 1466.25,1879.78"/>
<polygon points="125.09,3068.63 77.86,3208.50 132.43,3246.43 169.88,3123.17"/>
<polygon points="1456.09,1865.61 1466.25,1879.78 1487.31,1878.76 1488.31,1860.48"/>
<polygon points="1385.33,2023.61 1398.06,2018.66 1421.80,1924.33 1415.83,1914.79"/>
<polygon points="249.45,3060.26 245.16,2963.07 156.87,3003.28 206.06,3069.42"/>
<polygon points="1487.18,2019.53 1487.31,1878.76 1466.25,1879.78 1421.80,1924.33 1398.06,2018.66"/>
<polygon points="1440.97,2380.31 1470.37,2375.70 1449.70,2275.05 1418.78,2250.48"/>
<polygon points="1489.08,2375.84 1488.63,2275.47 1449.70,2275.05 1470.37,2375.70"/>
<polygon points="1416.02,2648.95 1431.18,2646.76 1431.12,2588.73 1412.87,2592.59"/>
<polygon points="884.08,3570.93 809.63,3574.06 827.03,3775.84 906.71,3756.75"/>
<polygon points="809.63,3574.06 708.17,3578.21 712.09,3787.61 827.03,3775.84"/>
<polygon points="46.65,3587.10 43.66,3773.51 153.54,3814.36 170.84,3602.86"/>
<polygon points="3553.45,1653.49 3561.32,1840.44 3607.87,1841.78 3603.40,1656.51"/>
<polygon points="46.65,3587.10 32.14,3586.68 24.58,3773.33 43.66,3773.51"/>
<polygon points="3553.45,1653.49 3512.54,1646.92 3509.08,1834.29 3561.32,1840.44"/>
<polygon points="1431.18,2646.76 1490.41,2644.98 1490.85,2586.15 1431.12,2588.73"/>
<polygon points="3806.50,771.75 3812.88,686.78 3812.87,659.66 3812.87,632.54 3803.03,632.54 3803.18,676.52 3792.13,684.44 3781.08,692.35 3797.87,753.24"/>
<polygon points="1418.78,2250.48 1449.70,2275.05 1411.23,2146.87 1389.40,2137.07"/>
<polygon points="77.86,3208.50 51.45,3307.52 127.26,3345.12 132.43,3246.43"/>
<polygon points="3557.04,1274.40 3557.95,1376.37 3607.87,1379.81 3602.21,1277.96"/>
<polygon points="77.86,3208.50 61.12,3207.57 35.04,3306.32 51.45,3307.52"/>
<polygon points="1488.63,2275.47 1487.91,2147.50 1411.23,2146.87 1449.70,2275.05"/>
<polygon points="1387.86,2225.92 1418.78,2250.48 1389.40,2137.07 1367.58,2127.26"/>
<polygon points="1400.85,2651.15 1416.02,2648.95 1412.87,2592.59 1394.61,2596.45"/>
<polygon points="1411.57,2384.93 1440.97,2380.31 1418.78,2250.48 1387.86,2225.92"/>
<polygon points="1372.60,2028.56 1385.33,2023.61 1415.83,1914.79 1409.85,1905.24"/>
<polygon points="1445.94,1851.43 1456.09,1865.61 1488.31,1860.48 1489.31,1842.20"/>
<polygon points="1445.94,1851.43 1409.85,1905.24 1415.83,1914.79 1456.09,1865.61"/>
<polygon points="1394.61,2596.45 1412.87,2592.59 1440.97,2380.31 1411.57,2384.93"/>
<polygon points="822.65,243.57 833.65,244.61 833.42,40.82 822.20,42.28"/>
<polygon points="1367.58,2127.26 1389.40,2137.07 1385.33,2023.61 1372.60,2028.56"/>
<polygon points="745.44,1518.25 685.04,1778.23 752.28,1905.27 906.71,1918.64 906.71,1637.46 799.17,1439.19"/>
<polygon points="752.28,1905.27 752.82,2132.30 851.91,2140.88 906.71,1918.64"/>
<polygon points="739.41,2517.82 740.21,2613.81 811.42,2615.16 815.82,2519.26"/>
<polygon points="752.82,2132.30 739.41,2517.82 815.82,2519.26 851.91,2140.88"/>
<polygon points="740.21,2613.81 786.89,2868.50 811.42,2615.16"/>
<polygon points="2333.07,2721.17 2279.33,2642.11 2171.79,2840.38 2171.79,3121.56 2326.23,3108.19 2393.47,2981.15"/>
<polygon points="2326.23,3108.19 2171.79,3121.56 2226.59,3343.80 2325.68,3335.22"/>
<polygon points="2339.10,3720.74 2262.69,3722.18 2267.08,3818.08 2338.29,3816.73"/>
<polygon points="2325.68,3335.22 2226.59,3343.80 2262.69,3722.18 2339.10,3720.74"/>
<polygon points="2338.29,3816.73 2267.08,3818.08 2291.61,4071.42"/>
<polygon points="456.68,1515.31 403.05,1435.83 295.23,1633.62 295.23,1910.41 449.68,1898.01 516.73,1775.69"/>
<polygon points="449.68,1898.01 295.23,1910.41 350.06,2131.98 449.10,2124.03"/>
<polygon points="458.74,2513.17 382.46,2514.08 386.27,2610.04 457.40,2609.19"/>
<polygon points="449.10,2124.03 350.06,2131.98 382.46,2514.08 458.74,2513.17"/>
<polygon points="457.40,2609.19 386.27,2610.04 409.63,2863.75"/>
<polygon points="84.63,1515.31 24.58,1775.69 91.63,1898.01 246.08,1910.41 246.08,1633.62 138.26,1435.83"/>
<polygon points="91.63,1898.01 92.20,2124.03 191.24,2131.98 246.08,1910.41"/>
<polygon points="82.57,2513.17 83.90,2609.19 155.04,2610.04 158.85,2514.08"/>
<polygon points="92.20,2124.03 82.57,2513.17 158.85,2514.08 191.24,2131.98"/>
<polygon points="83.90,2609.19 131.68,2863.75 155.04,2610.04"/>
<polygon points="3602.65,2565.13 3589.40,2305.87 3540.92,2311.61 3554.21,2570.86"/>
<polygon points="3589.40,2305.87 3574.83,2210.41 3526.35,2216.14 3540.92,2311.61"/>
<polygon points="3657.02,824.35 3679.92,1048.81 3727.22,1045.36 3704.32,820.90"/>
<polygon points="3606.48,2647.24 3602.65,2565.13 3554.21,2570.86 3558.30,2649.02"/>
<polygon points="3679.92,1048.81 3667.23,1305.03 3714.31,1297.21 3727.22,1045.36"/>
<polygon points="3667.23,1305.03 3685.09,1483.93 3728.91,1475.70 3714.31,1297.21"/>
<polygon points="3571.14,2847.53 3606.48,2647.24 3558.30,2649.02 3526.35,2849.21"/>
<polygon points="3576.95,3281.42 3576.77,3196.48 3547.69,3200.03 3550.32,3284.85"/>
<polygon points="3685.09,1483.93 3673.47,1813.54 3702.12,1810.01 3728.91,1475.70"/>
<polygon points="3673.47,1813.54 3671.51,1899.03 3697.57,1895.75 3702.12,1810.01"/>
<polygon points="3671.51,1899.03 3657.02,2119.77 3680.32,2116.95 3697.57,1895.75"/>
<polygon points="3576.77,3196.48 3571.14,2847.53 3526.35,2849.21 3547.69,3200.03"/>
<polygon points="3571.32,3486.09 3576.95,3281.42 3550.32,3284.85 3547.25,3489.31"/>
<polygon points="3672.71,2305.87 3659.46,2565.13 3707.89,2570.86 3721.18,2311.61"/>
<polygon points="3687.28,2210.41 3672.71,2305.87 3721.18,2311.61 3735.75,2216.14"/>
<polygon points="3827.05,1048.81 3849.95,824.35 3802.65,820.90 3779.75,1045.36"/>
<polygon points="3659.46,2565.13 3655.63,2647.24 3703.81,2649.02 3707.89,2570.86"/>
<polygon points="3839.74,1305.03 3827.05,1048.81 3779.75,1045.36 3792.66,1297.21"/>
<polygon points="3821.88,1483.93 3839.74,1305.03 3792.66,1297.21 3778.06,1475.70"/>
<polygon points="3655.63,2647.24 3690.97,2847.53 3735.75,2849.21 3703.81,2649.02"/>
<polygon points="3685.34,3196.48 3685.15,3281.42 3711.78,3284.85 3714.42,3200.03"/>
<polygon points="3833.50,1813.54 3821.88,1483.93 3778.06,1475.70 3804.84,1810.01"/>
<polygon points="3835.46,1899.03 3833.50,1813.54 3804.84,1810.01 3809.40,1895.75"/>
<polygon points="3849.95,2119.77 3835.46,1899.03 3809.40,1895.75 3826.64,2116.95"/>
<polygon points="3690.97,2847.53 3685.34,3196.48 3714.42,3200.03 3735.75,2849.21"/>
<polygon points="3685.15,3281.42 3690.78,3486.09 3714.85,3489.31 3711.78,3284.85"/>
<polygon points="1833.18,2007.25 1835.33,2624.51 2096.30,2870.22 2071.30,2489.64 2112.71,2330.92 2072.98,1801.47 1994.23,1699.63"/>
<polygon points="1340.79,3217.92 1109.30,2901.25 1003.78,2999.69 955.87,3528.43 1036.30,3691.64 1002.10,4071.42 1340.79,3835.98"/>
<polygon points="1824.02,3806.88 1989.99,4071.42 2074.02,3960.06 2122.64,3444.71 2079.31,3306.75 2110.91,2935.41 1834.66,3212.35"/>
<polygon points="1389.94,3217.92 1389.94,3835.98 1728.63,4071.42 1694.43,3691.64 1774.86,3528.43 1726.95,2999.69 1621.43,2901.25"/>
<polygon points="1835.33,2624.51 1833.18,2007.25 1824.02,2007.75 1824.02,2625.12"/>
<polygon points="1833.18,2007.25 1994.23,1699.63 1990.98,1699.80 1824.02,2007.75"/>
<polygon points="2061.16,2919.38 1824.02,3208.92 1834.66,3212.35 2110.91,2935.41"/>
<polygon points="2652.23,835.06 2652.23,1216.20 2709.29,1218.11 2709.29,836.98"/>
<polygon points="195.58,245.65 195.58,81.65 130.20,74.02 170.08,242.68"/>
<polygon points="3764.12,3540.23 3753.47,4070.45 3775.72,4071.42 3775.72,3540.73"/>
<polygon points="1872.11,103.31 1872.11,245.65 1884.81,243.70 1875.94,102.72"/>
<polygon points="634.35,1836.80 635.88,1338.14 619.82,1338.14 621.35,1836.80"/>
<polygon points="630.15,2229.11 634.35,1836.80 621.35,1836.80 625.54,2229.11"/>
<polygon points="2196.10,656.80 2166.57,1068.36 2241.70,1068.36 2212.16,656.80"/>
<polygon points="3860.04,3489.31 3860.04,3114.20 3784.91,3114.20 3784.91,3489.31"/>
<polygon points="3860.04,3114.20 3837.12,2944.66 3807.82,2944.66 3784.91,3114.20"/>
<polygon points="3837.12,2944.66 3830.11,2422.57 3814.83,2422.57 3807.82,2944.66"/>
<polygon points="3830.11,2422.57 3824.78,2334.28 3820.16,2334.28 3814.83,2422.57"/>
<polygon points="685.38,1128.54 794.65,1390.03 851.64,1307.43 906.71,1222.33 906.71,731.91 798.25,933.08"/>
<polygon points="1173.82,967.91 1070.01,764.96 955.87,569.36 955.87,1055.99 1012.81,1139.20 1065.27,1225.59"/>
<polygon points="3038.22,932.26 3050.82,796.54 3003.43,791.91 3024.18,930.89"/>
<polygon points="3006.94,1218.84 3038.22,932.26 3024.18,930.89 3003.43,1218.50"/>
<polygon points="963.53,44.25 961.81,145.69 980.67,144.07 963.53,44.25"/>
<polygon points="2665.95,245.65 2665.95,245.65 2665.95,245.65 2665.95,245.65"/>
<polygon points="961.81,145.69 977.24,245.65 980.67,245.36 980.67,144.07"/>
<polygon points="3050.82,796.54 3023.06,656.87 3023.06,656.87 3003.43,791.91"/>
<polygon points="516.73,1125.18 403.86,929.73 295.40,728.56 295.40,1218.98 350.47,1304.07 407.46,1386.68"/>
<polygon points="28.30,1129.00 136.85,1386.68 189.30,1300.29 246.25,1217.09 246.25,730.45 132.11,926.05"/>
<polygon points="1235.58,939.01 1249.62,937.64 1270.36,798.66 1222.97,803.29"/>
<polygon points="1266.85,1225.59 1270.36,1225.25 1249.62,937.64 1235.58,939.01"/>
<polygon points="910.94,44.25 910.94,44.25 893.80,144.07 912.66,145.69"/>
<polygon points="2715.10,245.65 2715.10,245.65 2715.10,245.65 2715.10,245.65"/>
<polygon points="912.66,145.69 893.80,144.07 893.80,245.36 897.23,245.65"/>
<polygon points="1222.97,803.29 1270.36,798.66 1250.73,663.62 1250.73,663.62"/>
<polygon points="2826.40,3489.31 3018.61,3378.41 3235.62,3310.33 3235.62,3016.87 3229.90,2963.39 3125.19,2960.56 2967.90,2991.45 2863.91,3232.12"/>
<polygon points="2826.40,3538.46 2865.77,3780.37 2961.56,4026.31 3117.98,4061.50 3217.21,4071.42 3233.84,4001.44 3233.84,3722.81 3031.45,3626.25"/>
<polygon points="3422.16,2650.71 3430.83,2424.60 3284.77,2424.60 3349.13,2650.71"/>
<polygon points="3529.14,605.00 3519.78,655.21 3590.32,652.03 3529.14,605.00"/>
<polygon points="630.68,2350.88 631.90,2278.26 607.07,2278.26 616.08,2350.88"/>
<polygon points="634.15,2868.50 635.88,2610.74 577.46,2610.74 590.33,2868.50"/>
<polygon points="3519.78,655.21 3509.08,915.69 3581.06,912.45 3590.32,652.03"/>
<polygon points="635.88,2610.74 630.68,2350.88 616.08,2350.88 577.46,2610.74"/>
<polygon points="3509.08,554.42 3529.14,605.00 3529.14,605.00 3533.55,553.31"/>
<polygon points="3430.83,2424.60 3418.69,2204.07 3374.87,2204.07 3284.77,2424.60"/>
<polygon points="3109.93,2331.25 2950.48,2468.52 2826.40,2660.08 2851.43,2816.59 2886.17,2911.41 2916.95,2895.30 3109.93,2777.90 3084.75,2551.83"/>
<polygon points="2231.46,1117.51 2026.41,1205.30 1824.02,1301.87 1824.02,1580.49 1840.64,1650.48 1939.88,1640.56 2096.30,1605.36 2192.09,1359.42"/>
<polygon points="3532.05,4071.42 3582.32,4065.14 3582.32,3837.01 3481.78,3849.58"/>
<polygon points="3694.55,3733.17 3694.55,3733.17 3631.47,3785.44 3702.86,3786.34"/>
<polygon points="3352.57,749.29 3341.90,751.11 3383.43,903.17 3401.58,900.08"/>
<polygon points="538.34,245.65 567.47,218.71 567.47,56.98 528.64,92.90"/>
<polygon points="3702.86,3786.34 3631.47,3785.44 3631.47,4070.50 3704.32,4071.42"/>
<polygon points="3444.26,541.31 3401.57,548.59 3341.90,751.11 3352.57,749.29"/>
<polygon points="3401.58,900.08 3383.43,903.17 3444.26,989.51 3444.26,989.51"/>
<polygon points="3481.78,3849.58 3582.32,3837.01 3512.34,3623.80 3482.17,3627.57"/>
<polygon points="2179.60,1943.23 2194.93,2481.08 2358.16,2592.96 2335.99,2273.79 2393.47,2114.40 2366.96,1844.07 2290.64,1741.89"/>
<polygon points="3051.17,1471.58 2894.59,1267.99 2791.59,1368.78 2772.95,1639.76 2858.07,1800.59 2836.73,2119.77 3051.17,2010.32"/>
<polygon points="1367.58,1624.31 1492.30,1793.05 1572.72,1677.96 1602.42,1418.61 1536.14,1279.18 1545.55,966.72 1367.58,1106.74"/>
<polygon points="2442.62,1470.74 2442.62,2009.61 2658.75,2119.77 2638.84,1800.93 2723.79,1640.08 2702.26,1368.14 2599.32,1267.26"/>
<polygon points="2194.93,2481.08 2179.60,1943.23 2171.09,1943.77 2171.09,2482.58"/>
<polygon points="2179.60,1943.23 2290.64,1741.89 2273.62,1742.96 2171.09,1943.77"/>
<polygon points="81.05,202.10 49.45,52.54 24.58,71.73 24.58,245.65"/>
<polygon points="1538.86,595.37 1538.86,914.45 1602.42,917.57 1602.42,598.48"/>
<polygon points="1024.85,520.21 1024.85,364.40 955.87,346.31 955.87,502.12"/>
<polygon points="2166.57,336.21 2166.57,606.66 2230.20,607.65 2194.59,336.65"/>
<polygon points="1284.53,104.11 1276.36,245.65 1304.97,243.67 1304.97,102.69"/>
<polygon points="629.53,1032.19 635.88,604.95 601.78,604.95 617.35,1032.19"/>
<polygon points="634.31,1288.98 629.53,1032.19 617.35,1032.19 609.95,1288.98"/>
<polygon points="3014.73,367.23 3003.43,607.72 3080.85,607.72 3048.83,367.23"/>
<polygon points="1741.75,2852.10 1741.70,2537.47 1664.29,2537.36 1664.34,2851.99"/>
<polygon points="1741.70,2537.47 1741.75,2367.92 1664.34,2367.82 1664.29,2537.36"/>
<polygon points="1741.75,2367.92 1730.70,2100.95 1696.60,2100.90 1664.34,2367.82"/>
<polygon points="1730.70,2100.95 1730.03,2012.67 1705.68,2012.63 1696.60,2100.90"/>
<polygon points="2445.66,726.83 2603.08,1218.11 2603.08,652.51"/>
<polygon points="3432.63,3595.32 3310.53,3565.51 3282.99,4071.42"/>
<polygon points="2603.08,1218.11 2445.66,726.83 2442.62,728.86 2603.08,1218.11"/>
<polygon points="3282.99,3547.12 3282.99,4071.42 3282.99,4071.42 3310.53,3565.51"/>
<polygon points="352.58,29.20 335.97,245.65 378.06,245.65 357.96,29.20"/>
<polygon points="3100.32,1158.01 3281.66,1281.17 3281.66,658.69"/>
<polygon points="2954.28,1095.68 2772.95,596.36 2772.95,1218.84"/>
<polygon points="3827.57,3540.20 3827.57,3540.20 3824.87,4071.42 3830.26,4071.42"/>
<polygon points="3159.08,2911.41 3201.22,2909.98 3159.08,2288.93 3159.08,2288.93"/>
<polygon points="270.22,29.20 264.83,29.20 244.74,245.65 286.82,245.65"/>
<polygon points="407.58,518.07 415.20,521.24 418.06,514.77 409.90,511.38"/>
<polygon points="415.20,521.24 422.47,525.12 425.86,518.94 418.06,514.77"/>
<polygon points="422.47,525.12 429.32,529.70 433.21,523.84 425.86,518.94"/>
<polygon points="429.32,529.70 435.69,534.91 440.04,529.43 433.21,523.84"/>
<polygon points="435.69,534.91 441.52,540.71 446.29,535.66 440.04,529.43"/>
<polygon points="441.52,540.71 446.75,547.05 451.90,542.45 446.29,535.66"/>
<polygon points="446.75,547.05 451.33,553.86 456.81,549.76 451.90,542.45"/>
<polygon points="451.33,553.86 455.22,561.08 460.98,557.51 456.81,549.76"/>
<polygon points="455.22,561.08 458.37,568.64 464.36,565.61 460.98,557.51"/>
<polygon points="1725.17,165.41 1725.02,173.56 1731.70,172.99 1731.87,164.24"/>
<polygon points="1725.02,173.56 1724.94,181.80 1731.62,181.82 1731.70,172.99"/>
<polygon points="1724.94,181.80 1724.94,190.04 1731.62,190.66 1731.62,181.82"/>
<polygon points="1724.94,190.04 1725.02,198.20 1731.70,199.41 1731.62,190.66"/>
<polygon points="1725.02,198.20 1725.17,206.20 1731.87,207.99 1731.70,199.41"/>
<polygon points="1725.17,206.20 1725.41,213.97 1732.12,216.33 1731.87,207.99"/>
<polygon points="1725.41,213.97 1725.71,221.44 1732.45,224.33 1732.12,216.33"/>
<polygon points="458.37,624.71 455.22,632.24 460.98,633.81 464.36,625.74"/>
<polygon points="455.22,632.24 451.33,639.42 456.81,641.52 460.98,633.81"/>
<polygon points="451.33,639.42 446.75,646.18 451.90,648.77 456.81,641.52"/>
<polygon points="1354.12,111.60 1354.37,117.86 1361.89,114.12 1361.62,107.41"/>
<polygon points="1354.37,117.86 1354.59,124.62 1362.12,121.37 1361.89,114.12"/>
<polygon points="1354.59,124.62 1354.78,131.81 1362.33,129.08 1362.12,121.37"/>
<polygon points="1354.78,131.81 1354.94,139.36 1362.50,137.18 1362.33,129.08"/>
<polygon points="1354.94,139.36 1355.07,147.20 1362.63,145.59 1362.50,137.18"/>
<polygon points="1355.07,147.20 1355.16,155.26 1362.73,154.23 1362.63,145.59"/>
<polygon points="1355.16,155.26 1355.21,163.45 1362.79,163.01 1362.73,154.23"/>
<polygon points="1355.21,163.45 1355.23,171.69 1362.81,171.85 1362.79,163.01"/>
<polygon points="1355.23,171.69 1355.21,179.91 1362.79,180.67 1362.81,171.85"/>
<polygon points="1355.21,179.91 1355.16,188.04 1362.73,189.38 1362.79,180.67"/>
<polygon points="1355.16,188.04 1355.07,195.98 1362.63,197.90 1362.73,189.38"/>
<polygon points="1355.07,195.98 1354.94,203.66 1362.50,206.14 1362.63,197.90"/>
<polygon points="1354.94,203.66 1354.78,211.02 1362.33,214.03 1362.50,206.14"/>
<polygon points="1354.78,211.02 1354.59,217.97 1362.12,221.49 1362.33,214.03"/>
<polygon points="1354.59,217.97 1354.37,224.46 1361.89,228.44 1362.12,221.49"/>
<polygon points="1354.37,224.46 1354.12,230.41 1361.62,234.83 1361.89,228.44"/>
<polygon points="329.26,662.86 322.88,657.64 319.06,661.06 325.89,666.65"/>
<polygon points="322.88,657.64 317.06,651.84 312.81,654.84 319.06,661.06"/>
<polygon points="317.06,651.84 311.83,645.50 307.20,648.04 312.81,654.84"/>
<polygon points="311.83,645.50 307.25,638.69 302.29,640.73 307.20,648.04"/>
<polygon points="307.25,638.69 303.36,631.47 298.12,632.99 302.29,640.73"/>
<polygon points="1594.26,217.86 1594.49,210.94 1587.61,214.09 1587.37,221.52"/>
<polygon points="1594.49,210.94 1594.66,203.61 1587.80,206.23 1587.61,214.09"/>
<polygon points="1594.66,203.61 1594.78,195.95 1587.92,198.01 1587.80,206.23"/>
<polygon points="1594.78,195.95 1594.84,188.02 1587.99,189.51 1587.92,198.01"/>
<polygon points="1594.84,188.02 1594.84,179.91 1587.99,180.81 1587.99,189.51"/>
<polygon points="1594.84,179.91 1594.78,171.69 1587.92,172.00 1587.99,180.81"/>
<polygon points="1594.78,171.69 1594.66,163.44 1587.80,163.15 1587.92,172.00"/>
<polygon points="1594.66,163.44 1594.49,155.25 1587.61,154.36 1587.80,163.15"/>
<polygon points="1594.49,155.25 1594.26,147.19 1587.37,145.71 1587.61,154.36"/>
<polygon points="1594.26,147.19 1593.98,139.33 1587.07,137.29 1587.37,145.71"/>
<polygon points="307.25,553.13 311.83,546.37 307.20,541.72 302.29,548.98"/>
<polygon points="311.83,546.37 317.06,540.08 312.81,534.98 307.20,541.72"/>
<polygon points="317.06,540.08 322.88,534.34 319.06,528.82 312.81,534.98"/>
<polygon points="322.88,534.34 329.26,529.19 325.89,523.30 319.06,528.82"/>
<polygon points="329.26,529.19 336.11,524.69 333.24,518.47 325.89,523.30"/>
<polygon points="336.11,524.69 343.38,520.87 341.04,514.38 333.24,518.47"/>
<polygon points="343.38,520.87 350.99,517.79 349.21,511.07 341.04,514.38"/>
<polygon points="350.99,517.79 358.88,515.46 357.66,508.57 349.21,511.07"/>
<polygon points="358.88,515.46 366.97,513.91 366.33,506.91 357.66,508.57"/>
<polygon points="366.97,513.91 375.17,513.15 375.13,506.09 366.33,506.91"/>
<polygon points="375.17,513.15 383.41,513.19 383.97,506.14 375.13,506.09"/>
<polygon points="383.41,513.19 391.61,514.03 392.77,507.04 383.97,506.14"/>
<polygon points="391.61,514.03 399.70,515.66 401.44,508.79 392.77,507.04"/>
<polygon points="399.70,515.66 407.58,518.07 409.90,511.38 401.44,508.79"/>
<polygon points="1822.29,154.31 1821.85,146.23 1810.98,146.19 1811.42,154.27"/>
<polygon points="1821.85,146.23 1821.31,138.54 1810.44,138.50 1810.98,146.19"/>
<polygon points="1821.31,138.54 1820.68,131.32 1809.81,131.28 1810.44,138.50"/>
<polygon points="1820.68,131.32 1819.95,124.64 1809.08,124.60 1809.81,131.28"/>
<polygon points="1733.88,124.68 1733.34,131.77 1744.25,131.82 1744.79,124.73"/>
<polygon points="1733.34,131.77 1732.86,139.35 1743.77,139.40 1744.25,131.82"/>
<polygon points="1732.86,139.35 1732.45,147.34 1743.36,147.39 1743.77,139.40"/>
<polygon points="1732.45,147.34 1732.12,155.67 1743.03,155.72 1743.36,147.39"/>
<polygon points="1732.12,155.67 1731.87,164.24 1742.78,164.29 1743.03,155.72"/>
<polygon points="1731.87,164.24 1731.70,172.99 1742.61,173.04 1742.78,164.29"/>
<polygon points="1731.70,172.99 1731.62,181.82 1742.53,181.87 1742.61,173.04"/>
<polygon points="1731.62,181.82 1731.62,190.66 1742.53,190.71 1742.53,181.87"/>
<polygon points="1731.62,190.66 1731.70,199.41 1742.61,199.46 1742.53,190.71"/>
<polygon points="1731.70,199.41 1731.87,207.99 1742.78,208.05 1742.61,199.46"/>
<polygon points="1731.87,207.99 1732.12,216.33 1743.03,216.38 1742.78,208.05"/>
<polygon points="1732.12,216.33 1732.45,224.33 1743.36,224.38 1743.03,216.38"/>
<polygon points="1732.45,224.33 1732.86,231.93 1743.77,231.98 1743.36,224.38"/>
<polygon points="1732.86,231.93 1733.34,239.04 1744.25,239.09 1743.77,231.98"/>
<polygon points="1733.34,239.04 1733.88,245.60 1744.79,245.65 1744.25,239.09"/>
<polygon points="1361.62,107.41 1361.89,114.12 1372.84,114.11 1372.57,107.39"/>
<polygon points="1361.89,114.12 1362.12,121.37 1373.07,121.36 1372.84,114.11"/>
<polygon points="1362.12,121.37 1362.33,129.08 1373.28,129.07 1373.07,121.36"/>
<polygon points="1362.33,129.08 1362.50,137.18 1373.45,137.17 1373.28,129.07"/>
<polygon points="1362.50,137.18 1362.63,145.59 1373.58,145.57 1373.45,137.17"/>
<polygon points="1362.63,145.59 1362.73,154.23 1373.68,154.21 1373.58,145.57"/>
<polygon points="1362.73,154.23 1362.79,163.01 1373.74,162.99 1373.68,154.21"/>
<polygon points="1362.79,163.01 1362.81,171.85 1373.76,171.84 1373.74,162.99"/>
<polygon points="1362.81,171.85 1362.79,180.67 1373.74,180.66 1373.76,171.84"/>
<polygon points="1362.79,180.67 1362.73,189.38 1373.68,189.37 1373.74,180.66"/>
<polygon points="1362.73,189.38 1362.63,197.90 1373.58,197.88 1373.68,189.37"/>
<polygon points="1362.63,197.90 1362.50,206.14 1373.45,206.13 1373.58,197.88"/>
<polygon points="1362.50,206.14 1362.33,214.03 1373.28,214.01 1373.45,206.13"/>
<polygon points="1362.33,214.03 1362.12,221.49 1373.07,221.47 1373.28,214.01"/>
<polygon points="1362.12,221.49 1361.89,228.44 1372.84,228.43 1373.07,221.47"/>
<polygon points="1361.89,228.44 1361.62,234.83 1372.57,234.81 1372.84,228.43"/>
<polygon points="1361.62,234.83 1361.32,240.58 1372.27,240.57 1372.57,234.81"/>
<polygon points="1361.32,240.58 1361.00,245.65 1371.95,245.64 1372.27,240.57"/>
<polygon points="1586.31,240.49 1586.72,234.78 1575.78,234.92 1575.38,240.63"/>
<polygon points="1586.72,234.78 1587.07,228.43 1576.14,228.58 1575.78,234.92"/>
<polygon points="1587.07,228.43 1587.37,221.52 1576.44,221.66 1576.14,228.58"/>
<polygon points="1587.37,221.52 1587.61,214.09 1576.68,214.23 1576.44,221.66"/>
<polygon points="1587.61,214.09 1587.80,206.23 1576.87,206.37 1576.68,214.23"/>
<polygon points="1587.80,206.23 1587.92,198.01 1576.99,198.15 1576.87,206.37"/>
<polygon points="1587.92,198.01 1587.99,189.51 1577.05,189.65 1576.99,198.15"/>
<polygon points="1587.99,189.51 1587.99,180.81 1577.05,180.95 1577.05,189.65"/>
<polygon points="1587.99,180.81 1587.92,172.00 1576.99,172.14 1577.05,180.95"/>
<polygon points="1587.92,172.00 1587.80,163.15 1576.87,163.29 1576.99,172.14"/>
<polygon points="1587.80,163.15 1587.61,154.36 1576.68,154.51 1576.87,163.29"/>
<polygon points="1587.61,154.36 1587.37,145.71 1576.44,145.86 1576.68,154.51"/>
<polygon points="1587.37,145.71 1587.07,137.29 1576.14,137.43 1576.44,145.86"/>
<polygon points="1587.07,137.29 1586.72,129.17 1575.78,129.31 1576.14,137.43"/>
<polygon points="1586.72,129.17 1586.31,121.43 1575.38,121.57 1575.78,129.31"/>
<polygon points="1586.31,121.43 1585.86,114.15 1574.93,114.29 1575.38,121.57"/>
<polygon points="1819.95,245.65 1820.68,238.67 1809.81,238.63 1809.08,245.62"/>
<polygon points="1820.68,238.67 1821.31,231.19 1810.44,231.15 1809.81,238.63"/>
<polygon points="1821.31,231.19 1821.85,223.28 1810.98,223.24 1810.44,231.15"/>
<polygon points="1821.85,223.28 1822.29,215.02 1811.42,214.98 1810.98,223.24"/>
<polygon points="1822.29,215.02 1822.62,206.49 1811.75,206.45 1811.42,214.98"/>
<polygon points="1822.62,206.49 1822.84,197.77 1811.97,197.73 1811.75,206.45"/>
<polygon points="1822.84,197.77 1822.96,188.95 1812.09,188.91 1811.97,197.73"/>
<polygon points="1822.96,188.95 1822.96,180.10 1812.09,180.07 1812.09,188.91"/>
<polygon points="1822.96,180.10 1822.84,171.33 1811.97,171.29 1812.09,180.07"/>
<polygon points="1822.84,171.33 1822.62,162.70 1811.75,162.66 1811.97,171.29"/>
<polygon points="1822.62,162.70 1822.29,154.31 1811.42,154.27 1811.75,162.66"/>
<polygon points="1811.42,154.27 1810.98,146.19 1803.31,147.82 1803.73,155.57"/>
<polygon points="1810.98,146.19 1810.44,138.50 1802.79,140.44 1803.31,147.82"/>
<polygon points="1810.44,138.50 1809.81,131.28 1802.18,133.51 1802.79,140.44"/>
<polygon points="1809.81,131.28 1809.08,124.60 1801.48,127.10 1802.18,133.51"/>
<polygon points="1744.79,124.73 1744.25,131.82 1751.81,133.89 1752.33,127.09"/>
<polygon points="1744.25,131.82 1743.77,139.40 1751.35,141.17 1751.81,133.89"/>
<polygon points="1743.77,139.40 1743.36,147.39 1750.96,148.83 1751.35,141.17"/>
<polygon points="1743.36,147.39 1743.03,155.72 1750.64,156.82 1750.96,148.83"/>
<polygon points="1743.03,155.72 1742.78,164.29 1750.40,165.05 1750.64,156.82"/>
<polygon points="1742.78,164.29 1742.61,173.04 1750.24,173.44 1750.40,165.05"/>
<polygon points="1742.61,173.04 1742.53,181.87 1750.16,181.91 1750.24,173.44"/>
<polygon points="1742.53,181.87 1742.53,190.71 1750.16,190.39 1750.16,181.91"/>
<polygon points="1742.53,190.71 1742.61,199.46 1750.24,198.79 1750.16,190.39"/>
<polygon points="1742.61,199.46 1742.78,208.05 1750.40,207.02 1750.24,198.79"/>
<polygon points="1742.78,208.05 1743.03,216.38 1750.64,215.02 1750.40,207.02"/>
<polygon points="1743.03,216.38 1743.36,224.38 1750.96,222.70 1750.64,215.02"/>
<polygon points="1743.36,224.38 1743.77,231.98 1751.35,229.99 1750.96,222.70"/>
<polygon points="1743.77,231.98 1744.25,239.09 1751.81,236.81 1751.35,229.99"/>
<polygon points="1744.25,239.09 1744.79,245.65 1752.33,243.11 1751.81,236.81"/>
<polygon points="1372.57,107.39 1372.84,114.11 1380.01,116.34 1379.75,109.90"/>
<polygon points="1372.84,114.11 1373.07,121.36 1380.24,123.29 1380.01,116.34"/>
<polygon points="1373.07,121.36 1373.28,129.07 1380.43,130.69 1380.24,123.29"/>
<polygon points="1373.28,129.07 1373.45,137.17 1380.60,138.46 1380.43,130.69"/>
<polygon points="1373.45,137.17 1373.58,145.57 1380.73,146.53 1380.60,138.46"/>
<polygon points="1373.58,145.57 1373.68,154.21 1380.82,154.82 1380.73,146.53"/>
<polygon points="1373.68,154.21 1373.74,162.99 1380.88,163.24 1380.82,154.82"/>
<polygon points="1373.74,162.99 1373.76,171.84 1380.89,171.73 1380.88,163.24"/>
<polygon points="1373.76,171.84 1373.74,180.66 1380.88,180.19 1380.89,171.73"/>
<polygon points="1373.74,180.66 1373.68,189.37 1380.82,188.55 1380.88,180.19"/>
<polygon points="1373.68,189.37 1373.58,197.88 1380.73,196.72 1380.82,188.55"/>
<polygon points="1373.58,197.88 1373.45,206.13 1380.60,204.63 1380.73,196.72"/>
<polygon points="1373.45,206.13 1373.28,214.01 1380.43,212.19 1380.60,204.63"/>
<polygon points="1373.28,214.01 1373.07,221.47 1380.24,219.35 1380.43,212.19"/>
<polygon points="1373.07,221.47 1372.84,228.43 1380.01,226.02 1380.24,219.35"/>
<polygon points="1372.84,228.43 1372.57,234.81 1379.75,232.15 1380.01,226.02"/>
<polygon points="1372.57,234.81 1372.27,240.57 1379.47,237.67 1379.75,232.15"/>
<polygon points="1574.93,245.65 1575.38,240.63 1567.90,237.83 1567.46,242.64"/>
<polygon points="1575.38,240.63 1575.78,234.92 1568.28,232.35 1567.90,237.83"/>
<polygon points="1575.78,234.92 1576.14,228.58 1568.62,226.26 1568.28,232.35"/>
<polygon points="1576.14,228.58 1576.44,221.66 1568.91,219.62 1568.62,226.26"/>
<polygon points="1576.44,221.66 1576.68,214.23 1569.14,212.50 1568.91,219.62"/>
<polygon points="1576.68,214.23 1576.87,206.37 1569.32,204.95 1569.14,212.50"/>
<polygon points="1576.87,206.37 1576.99,198.15 1569.44,197.07 1569.32,204.95"/>
<polygon points="1576.99,198.15 1577.05,189.65 1569.50,188.91 1569.44,197.07"/>
<polygon points="1577.05,189.65 1577.05,180.95 1569.50,180.56 1569.50,188.91"/>
<polygon points="1577.05,180.95 1576.99,172.14 1569.44,172.11 1569.50,180.56"/>
<polygon points="1576.99,172.14 1576.87,163.29 1569.32,163.62 1569.44,172.11"/>
<polygon points="1576.87,163.29 1576.68,154.51 1569.14,155.19 1569.32,163.62"/>
<polygon points="1576.68,154.51 1576.44,145.86 1568.91,146.89 1569.14,155.19"/>
<polygon points="1576.44,145.86 1576.14,137.43 1568.62,138.81 1568.91,146.89"/>
<polygon points="1576.14,137.43 1575.78,129.31 1568.28,131.02 1568.62,138.81"/>
<polygon points="1575.78,129.31 1575.38,121.57 1567.90,123.59 1568.28,131.02"/>
<polygon points="1575.38,121.57 1574.93,114.29 1567.46,116.61 1567.90,123.59"/>
<polygon points="1809.08,245.62 1809.81,238.63 1802.18,236.51 1801.48,243.21"/>
<polygon points="1809.81,238.63 1810.44,231.15 1802.79,229.33 1802.18,236.51"/>
<polygon points="1810.44,231.15 1810.98,223.24 1803.31,221.74 1802.79,229.33"/>
<polygon points="1810.98,223.24 1811.42,214.98 1803.73,213.82 1803.31,221.74"/>
<polygon points="1811.42,214.98 1811.75,206.45 1804.04,205.63 1803.73,213.82"/>
<polygon points="1811.75,206.45 1811.97,197.73 1804.26,197.27 1804.04,205.63"/>
<polygon points="1811.97,197.73 1812.09,188.91 1804.37,188.80 1804.26,197.27"/>
<polygon points="1812.09,188.91 1812.09,180.07 1804.37,180.32 1804.37,188.80"/>
<polygon points="1812.09,180.07 1811.97,171.29 1804.26,171.90 1804.37,180.32"/>
<polygon points="1811.97,171.29 1811.75,162.66 1804.04,163.62 1804.26,171.90"/>
<polygon points="1811.75,162.66 1811.42,154.27 1803.73,155.57 1804.04,163.62"/>
<polygon points="200.13,582.24 198.47,573.91 187.84,576.58 189.29,583.84"/>
<polygon points="198.47,573.91 196.01,565.79 185.69,569.48 187.84,576.58"/>
<polygon points="196.01,565.79 192.76,557.95 182.86,562.64 185.69,569.48"/>
<polygon points="192.76,557.95 188.76,550.46 179.37,556.10 182.86,562.64"/>
<polygon points="188.76,550.46 184.05,543.41 175.25,549.94 179.37,556.10"/>
<polygon points="184.05,543.41 178.67,536.85 170.55,544.21 175.25,549.94"/>
<polygon points="178.67,536.85 172.67,530.85 165.31,538.97 170.55,544.21"/>
<polygon points="172.67,530.85 166.12,525.46 159.59,534.27 165.31,538.97"/>
<polygon points="166.12,525.46 159.06,520.75 153.43,530.15 159.59,534.27"/>
<polygon points="159.06,520.75 151.58,516.75 146.90,526.66 153.43,530.15"/>
<polygon points="151.58,516.75 143.74,513.50 140.05,523.82 146.90,526.66"/>
<polygon points="143.74,513.50 135.63,511.04 132.97,521.67 140.05,523.82"/>
<polygon points="135.63,511.04 127.31,509.38 125.70,520.22 132.97,521.67"/>
<polygon points="127.31,509.38 118.87,508.55 118.33,519.50 125.70,520.22"/>
<polygon points="118.87,508.55 110.38,508.55 110.92,519.50 118.33,519.50"/>
<polygon points="110.38,508.55 101.94,509.38 103.55,520.22 110.92,519.50"/>
<polygon points="101.94,509.38 93.62,511.04 96.29,521.67 103.55,520.22"/>
<polygon points="93.62,511.04 85.51,513.50 89.20,523.82 96.29,521.67"/>
<polygon points="85.51,513.50 77.67,516.75 82.35,526.66 89.20,523.82"/>
<polygon points="77.67,516.75 70.19,520.75 75.82,530.15 82.35,526.66"/>
<polygon points="70.19,520.75 63.14,525.46 69.66,534.27 75.82,530.15"/>
<polygon points="63.14,525.46 56.58,530.85 63.94,538.97 69.66,534.27"/>
<polygon points="56.58,530.85 50.58,536.85 58.70,544.21 63.94,538.97"/>
<polygon points="50.58,536.85 45.20,543.41 54.00,549.94 58.70,544.21"/>
<polygon points="45.20,543.41 40.49,550.46 49.89,556.10 54.00,549.94"/>
<polygon points="40.49,550.46 36.49,557.95 46.39,562.64 49.89,556.10"/>
<polygon points="36.49,557.95 33.24,565.79 43.56,569.48 46.39,562.64"/>
<polygon points="33.24,565.79 30.78,573.91 41.41,576.58 43.56,569.48"/>
<polygon points="30.78,573.91 29.13,582.24 39.96,583.84 41.41,576.58"/>
<polygon points="29.13,582.24 28.30,590.68 39.24,591.22 39.96,583.84"/>
<polygon points="28.30,590.68 28.30,599.17 39.24,598.63 39.24,591.22"/>
<polygon points="28.30,599.17 29.13,607.61 39.97,606.01 39.24,598.63"/>
<polygon points="29.13,607.61 30.78,615.94 41.41,613.27 39.97,606.01"/>
<polygon points="30.78,615.94 33.24,624.06 43.56,620.37 41.41,613.27"/>
<polygon points="33.24,624.06 36.49,631.90 46.40,627.21 43.56,620.37"/>
<polygon points="36.49,631.90 40.49,639.39 49.89,633.75 46.40,627.21"/>
<polygon points="40.49,639.39 45.20,646.44 54.00,639.91 49.89,633.75"/>
<polygon points="45.20,646.44 50.58,653.00 58.70,645.64 54.00,639.91"/>
<polygon points="50.58,653.00 56.58,659.00 63.94,650.88 58.70,645.64"/>
<polygon points="56.58,659.00 63.14,664.39 69.67,655.58 63.94,650.88"/>
<polygon points="63.14,664.39 70.19,669.10 75.82,659.70 69.67,655.58"/>
<polygon points="70.19,669.10 77.67,673.10 82.36,663.19 75.82,659.70"/>
<polygon points="77.67,673.10 85.51,676.35 89.20,666.03 82.36,663.19"/>
<polygon points="85.51,676.35 93.63,678.81 96.29,668.18 89.20,666.03"/>
<polygon points="93.63,678.81 101.95,680.47 103.55,669.63 96.29,668.18"/>
<polygon points="101.95,680.47 110.39,681.30 110.93,670.35 103.55,669.63"/>
<polygon points="110.39,681.30 118.87,681.30 118.33,670.35 110.93,670.35"/>
<polygon points="118.87,681.30 127.31,680.47 125.70,669.63 118.33,670.35"/>
<polygon points="127.31,680.47 135.63,678.81 132.97,668.18 125.70,669.63"/>
<polygon points="135.63,678.81 143.75,676.35 140.06,666.03 132.97,668.18"/>
<polygon points="143.75,676.35 151.59,673.10 146.90,663.19 140.06,666.03"/>
<polygon points="151.59,673.10 159.07,669.10 153.43,659.70 146.90,663.19"/>
<polygon points="159.07,669.10 166.12,664.39 159.59,655.58 153.43,659.70"/>
<polygon points="166.12,664.39 172.68,659.00 165.32,650.88 159.59,655.58"/>
<polygon points="172.68,659.00 178.67,653.00 170.55,645.64 165.32,650.88"/>
<polygon points="178.67,653.00 184.05,646.44 175.25,639.91 170.55,645.64"/>
<polygon points="184.05,646.44 188.77,639.38 179.37,633.75 175.25,639.91"/>
<polygon points="188.77,639.38 192.77,631.90 182.86,627.21 179.37,633.75"/>
<polygon points="192.77,631.90 196.01,624.06 185.69,620.37 182.86,627.21"/>
<polygon points="196.01,624.06 198.47,615.94 187.84,613.27 185.69,620.37"/>
<polygon points="198.47,615.94 200.13,607.61 189.29,606.01 187.84,613.27"/>
<polygon points="200.13,607.61 200.96,599.17 190.02,598.63 189.29,606.01"/>
<polygon points="200.96,599.17 200.96,590.68 190.02,591.22 190.02,598.63"/>
<polygon points="200.96,590.68 200.13,582.24 189.29,583.84 190.02,591.22"/>
<polygon points="189.29,583.84 187.84,576.58 182.96,577.76 184.31,584.56"/>
<polygon points="187.84,576.58 185.69,569.48 180.95,571.13 182.96,577.76"/>
<polygon points="185.69,569.48 182.86,562.64 178.30,564.72 180.95,571.13"/>
<polygon points="182.86,562.64 179.37,556.10 175.03,558.61 178.30,564.72"/>
<polygon points="179.37,556.10 175.25,549.94 171.18,552.84 175.03,558.61"/>
<polygon points="175.25,549.94 170.55,544.21 166.79,547.48 171.18,552.84"/>
<polygon points="170.55,544.21 165.31,538.97 161.89,542.58 166.79,547.48"/>
<polygon points="165.31,538.97 159.59,534.27 156.53,538.18 161.89,542.58"/>
<polygon points="159.59,534.27 153.43,530.15 150.77,534.33 156.53,538.18"/>
<polygon points="153.43,530.15 146.90,526.66 144.66,531.06 150.77,534.33"/>
<polygon points="146.90,526.66 140.05,523.82 138.26,528.41 144.66,531.06"/>
<polygon points="2232.28,178.39 2232.21,185.51 2237.41,186.58 2237.48,179.92"/>
<polygon points="2232.21,185.51 2232.18,192.80 2237.39,193.40 2237.41,186.58"/>
<polygon points="2232.18,192.80 2232.21,200.19 2237.41,200.31 2237.39,193.40"/>
<polygon points="2232.21,200.19 2232.28,207.60 2237.48,207.24 2237.41,200.31"/>
<polygon points="2232.28,207.60 2232.41,214.96 2237.61,214.13 2237.48,207.24"/>
<polygon points="2232.41,214.96 2232.59,222.21 2237.77,220.91 2237.61,214.13"/>
<polygon points="2232.59,222.21 2232.82,229.27 2237.98,227.51 2237.77,220.91"/>
<polygon points="2232.82,229.27 2233.09,236.07 2238.24,233.88 2237.98,227.51"/>
<polygon points="82.35,526.66 75.82,530.15 78.17,534.33 84.28,531.06"/>
<polygon points="75.82,530.15 69.66,534.27 72.41,538.18 78.17,534.33"/>
<polygon points="69.66,534.27 63.94,538.97 67.05,542.58 72.41,538.18"/>
<polygon points="63.94,538.97 58.70,544.21 62.15,547.49 67.05,542.58"/>
<polygon points="2297.90,159.70 2297.45,166.33 2302.85,168.31 2303.27,162.11"/>
<polygon points="2297.45,166.33 2297.08,173.25 2302.50,174.78 2302.85,168.31"/>
<polygon points="2297.08,173.25 2296.80,180.40 2302.24,181.47 2302.50,174.78"/>
<polygon points="2296.80,180.40 2296.61,187.70 2302.07,188.30 2302.24,181.47"/>
<polygon points="2296.61,187.70 2296.52,195.09 2301.98,195.22 2302.07,188.30"/>
<polygon points="2296.52,195.09 2296.52,202.50 2301.98,202.15 2301.98,195.22"/>
<polygon points="2296.52,202.50 2296.61,209.85 2302.07,209.03 2301.98,202.15"/>
<polygon points="2296.61,209.85 2296.80,217.08 2302.24,215.79 2302.07,209.03"/>
<polygon points="2296.80,217.08 2297.08,224.11 2302.50,222.37 2302.24,215.79"/>
<polygon points="2297.08,224.11 2297.45,230.88 2302.85,228.70 2302.50,222.37"/>
<polygon points="2297.45,230.88 2297.90,237.32 2303.27,234.72 2302.85,228.70"/>
<polygon points="43.56,620.37 46.40,627.21 50.64,625.13 47.99,618.73"/>
<polygon points="46.40,627.21 49.89,633.75 53.91,631.25 50.64,625.13"/>
<polygon points="49.89,633.75 54.00,639.91 57.76,637.01 53.91,631.25"/>
<polygon points="54.00,639.91 58.70,645.64 62.15,642.37 57.76,637.01"/>
<polygon points="2376.49,236.48 2376.83,229.79 2371.55,227.89 2371.23,234.15"/>
<polygon points="2376.83,229.79 2377.11,222.81 2371.81,221.37 2371.55,227.89"/>
<polygon points="2377.11,222.81 2377.32,215.63 2372.01,214.64 2371.81,221.37"/>
<polygon points="2377.32,215.63 2377.46,208.30 2372.14,207.79 2372.01,214.64"/>
<polygon points="2377.46,208.30 2377.53,200.90 2372.21,200.86 2372.14,207.79"/>
<polygon points="2377.53,200.90 2377.53,193.49 2372.21,193.94 2372.21,200.86"/>
<polygon points="2377.53,193.49 2377.46,186.16 2372.14,187.08 2372.21,193.94"/>
<polygon points="2377.46,186.16 2377.32,178.97 2372.01,180.35 2372.14,187.08"/>
<polygon points="2377.32,178.97 2377.11,171.99 2371.81,173.82 2372.01,180.35"/>
<polygon points="118.33,670.35 125.70,669.63 124.83,664.81 117.94,665.49"/>
<polygon points="125.70,669.63 132.97,668.18 131.63,663.46 124.83,664.81"/>
<polygon points="132.97,668.18 140.06,666.03 138.26,661.44 131.63,663.46"/>
<polygon points="140.06,666.03 146.90,663.19 144.66,658.79 138.26,661.44"/>
<polygon points="146.90,663.19 153.43,659.70 150.77,655.52 144.66,658.79"/>
<polygon points="153.43,659.70 159.59,655.58 156.53,651.67 150.77,655.52"/>
<polygon points="159.59,655.58 165.32,650.88 161.89,647.27 156.53,651.67"/>
<polygon points="165.32,650.88 170.55,645.64 166.79,642.37 161.89,647.27"/>
<polygon points="170.55,645.64 175.25,639.91 171.18,637.01 166.79,642.37"/>
<polygon points="175.25,639.91 179.37,633.75 175.03,631.25 171.18,637.01"/>
<polygon points="179.37,633.75 182.86,627.21 178.30,625.13 175.03,631.25"/>
<polygon points="182.86,627.21 185.69,620.37 180.95,618.73 178.30,625.13"/>
<polygon points="185.69,620.37 187.84,613.27 182.96,612.09 180.95,618.73"/>
<polygon points="187.84,613.27 189.29,606.01 184.32,605.29 182.96,612.09"/>
<polygon points="189.29,606.01 190.02,598.63 184.99,598.39 184.32,605.29"/>
<polygon points="190.02,598.63 190.02,591.22 184.99,591.46 184.99,598.39"/>
<polygon points="190.02,591.22 189.29,583.84 184.31,584.56 184.99,591.46"/>
<polygon points="2435.44,162.04 2435.58,156.20 2427.06,156.24 2426.92,162.09"/>
<polygon points="2435.58,156.20 2435.74,150.74 2427.22,150.79 2427.06,156.24"/>
<polygon points="2435.74,150.74 2435.93,145.74 2427.41,145.78 2427.22,150.79"/>
<polygon points="2435.93,145.74 2436.14,141.22 2427.62,141.27 2427.41,145.78"/>
<polygon points="2436.14,141.22 2436.37,137.25 2427.85,137.30 2427.62,141.27"/>
<polygon points="2238.86,146.63 2238.53,151.10 2247.04,151.02 2247.37,146.55"/>
<polygon points="2238.53,151.10 2238.24,156.08 2246.74,156.00 2247.04,151.02"/>
<polygon points="2238.24,156.08 2237.98,161.50 2246.49,161.42 2246.74,156.00"/>
<polygon points="2237.98,161.50 2237.77,167.32 2246.28,167.24 2246.49,161.42"/>
<polygon points="2237.77,167.32 2237.61,173.48 2246.11,173.40 2246.28,167.24"/>
<polygon points="2237.61,173.48 2237.48,179.92 2245.99,179.84 2246.11,173.40"/>
<polygon points="2237.48,179.92 2237.41,186.58 2245.92,186.50 2245.99,179.84"/>
<polygon points="2237.41,186.58 2237.39,193.40 2245.89,193.32 2245.92,186.50"/>
<polygon points="2237.39,193.40 2237.41,200.31 2245.92,200.23 2245.89,193.32"/>
<polygon points="2237.41,200.31 2237.48,207.24 2245.99,207.16 2245.92,200.23"/>
<polygon points="2237.48,207.24 2237.61,214.13 2246.11,214.05 2245.99,207.16"/>
<polygon points="2237.61,214.13 2237.77,220.91 2246.28,220.83 2246.11,214.05"/>
<polygon points="2237.77,220.91 2237.98,227.51 2246.49,227.43 2246.28,220.83"/>
<polygon points="2237.98,227.51 2238.24,233.88 2246.74,233.80 2246.49,227.43"/>
<polygon points="2238.24,233.88 2238.53,239.95 2247.04,239.87 2246.74,233.80"/>
<polygon points="2238.53,239.95 2238.86,245.65 2247.37,245.57 2247.04,239.87"/>
<polygon points="2304.34,150.77 2303.77,156.25 2312.22,156.28 2312.79,150.80"/>
<polygon points="2303.77,156.25 2303.27,162.11 2311.72,162.14 2312.22,156.28"/>
<polygon points="2303.27,162.11 2302.85,168.31 2311.30,168.34 2311.72,162.14"/>
<polygon points="2302.85,168.31 2302.50,174.78 2310.96,174.81 2311.30,168.34"/>
<polygon points="2302.50,174.78 2302.24,181.47 2310.70,181.50 2310.96,174.81"/>
<polygon points="2302.24,181.47 2302.07,188.30 2310.52,188.33 2310.70,181.50"/>
<polygon points="2302.07,188.30 2301.98,195.22 2310.44,195.25 2310.52,188.33"/>
<polygon points="2301.98,195.22 2301.98,202.15 2310.44,202.18 2310.44,195.25"/>
<polygon points="2301.98,202.15 2302.07,209.03 2310.52,209.06 2310.44,202.18"/>
<polygon points="2302.07,209.03 2302.24,215.79 2310.70,215.82 2310.52,209.06"/>
<polygon points="2302.24,215.79 2302.50,222.37 2310.96,222.40 2310.70,215.82"/>
<polygon points="2302.50,222.37 2302.85,228.70 2311.30,228.73 2310.96,222.40"/>
<polygon points="2302.85,228.70 2303.27,234.72 2311.72,234.75 2311.30,228.73"/>
<polygon points="2303.27,234.72 2303.77,240.38 2312.22,240.41 2311.72,234.75"/>
<polygon points="2303.77,240.38 2304.34,245.62 2312.79,245.65 2312.22,240.41"/>
<polygon points="2370.43,245.65 2370.86,240.09 2362.37,240.05 2361.94,245.61"/>
<polygon points="2370.86,240.09 2371.23,234.15 2362.75,234.11 2362.37,240.05"/>
<polygon points="2371.23,234.15 2371.55,227.89 2363.07,227.85 2362.75,234.11"/>
<polygon points="2371.55,227.89 2371.81,221.37 2363.33,221.33 2363.07,227.85"/>
<polygon points="2371.81,221.37 2372.01,214.64 2363.52,214.60 2363.33,221.33"/>
<polygon points="2372.01,214.64 2372.14,207.79 2363.65,207.75 2363.52,214.60"/>
<polygon points="2372.14,207.79 2372.21,200.86 2363.72,200.83 2363.65,207.75"/>
<polygon points="2372.21,200.86 2372.21,193.94 2363.72,193.90 2363.72,200.83"/>
<polygon points="2372.21,193.94 2372.14,187.08 2363.65,187.04 2363.72,193.90"/>
<polygon points="2372.14,187.08 2372.01,180.35 2363.52,180.31 2363.65,187.04"/>
<polygon points="2372.01,180.35 2371.81,173.82 2363.33,173.78 2363.52,180.31"/>
<polygon points="2371.81,173.82 2371.55,167.55 2363.07,167.51 2363.33,173.78"/>
<polygon points="2371.55,167.55 2371.23,161.60 2362.75,161.56 2363.07,167.51"/>
<polygon points="2371.23,161.60 2370.86,156.02 2362.37,155.98 2362.75,161.56"/>
<polygon points="2370.86,156.02 2370.43,150.88 2361.94,150.84 2362.37,155.98"/>
<polygon points="2436.37,245.61 2436.14,240.34 2427.62,240.39 2427.85,245.65"/>
<polygon points="2436.14,240.34 2435.93,234.66 2427.41,234.71 2427.62,240.39"/>
<polygon points="2435.93,234.66 2435.74,228.62 2427.22,228.67 2427.41,234.71"/>
<polygon points="2435.74,228.62 2435.58,222.27 2427.06,222.32 2427.22,228.67"/>
<polygon points="2435.58,222.27 2435.44,215.68 2426.92,215.73 2427.06,222.32"/>
<polygon points="2435.44,215.68 2435.34,208.92 2426.82,208.96 2426.92,215.73"/>
<polygon points="2435.34,208.92 2435.26,202.03 2426.74,202.08 2426.82,208.96"/>
<polygon points="2435.26,202.03 2435.21,195.10 2426.70,195.15 2426.74,202.08"/>
<polygon points="2435.21,195.10 2435.20,188.19 2426.68,188.24 2426.70,195.15"/>
<polygon points="2435.20,188.19 2435.21,181.36 2426.70,181.41 2426.68,188.24"/>
<polygon points="2435.21,181.36 2435.26,174.69 2426.74,174.73 2426.70,181.41"/>
<polygon points="2435.26,174.69 2435.34,168.22 2426.82,168.27 2426.74,174.73"/>
<polygon points="2435.34,168.22 2435.44,162.04 2426.92,162.09 2426.82,168.27"/>
<polygon points="399.70,515.66 391.61,514.03 383.41,513.19 375.17,513.15 366.97,513.91 358.88,515.46 350.99,517.79 343.38,520.87 336.11,524.69 329.26,529.19 322.88,534.34 317.06,540.08 311.83,546.37 307.25,553.13 303.36,560.32 300.21,567.84 297.82,575.65 296.21,583.65 295.40,591.77 295.40,599.93 296.21,608.06 297.82,616.08 300.21,623.91 303.36,631.47 307.25,638.69 311.83,645.50 317.06,651.84 322.88,657.64 329.26,662.86 336.11,667.43 343.38,671.31 350.99,674.48 358.88,676.89 366.97,678.52 375.17,679.36 383.41,679.40 391.61,678.65 399.70,677.09 407.58,674.76 415.20,671.68 422.47,667.86 429.32,663.36 435.69,658.21 441.52,652.47 446.75,646.18 451.33,639.42 455.22,632.24 458.37,624.71 460.76,616.91 462.37,608.91 463.18,600.78 463.18,592.62 462.37,584.49 460.76,576.47 458.37,568.64 455.22,561.08 451.33,553.86 446.75,547.05 441.52,540.71 435.69,534.91 429.32,529.70 422.47,525.12 415.20,521.24 407.58,518.07"/>
<polygon points="1507.95,455.05 1506.60,448.25 1504.58,441.61 1501.93,435.21 1498.67,429.10 1494.82,423.33 1490.42,417.97 1485.52,413.07 1480.16,408.67 1474.40,404.82 1468.29,401.55 1461.89,398.90 1455.26,396.88 1448.46,395.53 1441.57,394.85 1434.64,394.85 1427.74,395.53 1420.95,396.88 1414.31,398.90 1407.91,401.55 1401.80,404.82 1396.04,408.67 1390.68,413.07 1385.78,417.97 1381.39,423.33 1377.54,429.09 1374.27,435.21 1371.62,441.61 1369.61,448.25 1368.26,455.05 1367.58,461.95 1367.58,468.88 1368.26,475.78 1369.61,482.58 1371.62,489.21 1374.27,495.62 1377.54,501.73 1381.39,507.50 1385.78,512.86 1390.68,517.76 1396.04,522.16 1401.80,526.01 1407.91,529.28 1414.31,531.93 1420.95,533.94 1427.74,535.30 1434.64,535.97 1441.57,535.98 1448.46,535.30 1455.26,533.94 1461.89,531.93 1468.29,529.28 1474.40,526.01 1480.16,522.16 1485.52,517.76 1490.42,512.86 1494.82,507.50 1498.67,501.73 1501.93,495.62 1504.58,489.22 1506.60,482.58 1507.95,475.78 1508.63,468.88 1508.63,461.95"/>
<polygon points="461.54,155.75 471.03,155.14 470.16,146.36 460.73,147.57"/>
<polygon points="460.73,147.57 470.16,146.36 468.73,137.73 459.39,139.52"/>
<polygon points="459.39,139.52 468.73,137.73 466.74,129.32 457.54,131.68"/>
<polygon points="457.54,131.68 466.74,129.32 464.22,121.23 455.19,124.13"/>
<polygon points="455.19,124.13 464.22,121.23 461.19,113.52 452.36,116.94"/>
<polygon points="452.36,116.94 461.19,113.52 457.67,106.27 449.09,110.19"/>
<polygon points="449.09,110.19 457.67,106.27 453.71,99.56 445.39,103.92"/>
<polygon points="445.39,103.92 453.71,99.56 449.34,93.44 441.32,98.22"/>
<polygon points="441.32,98.22 449.34,93.44 444.60,87.98 436.90,93.13"/>
<polygon points="436.90,93.13 444.60,87.98 439.54,83.22 432.18,88.69"/>
<polygon points="432.18,88.69 439.54,83.22 434.21,79.22 427.21,84.96"/>
<polygon points="1675.79,128.81 1667.44,124.60 1665.70,131.11 1674.16,134.88"/>
<polygon points="1674.16,134.88 1665.70,131.11 1664.17,138.17 1672.74,141.46"/>
<polygon points="1672.74,141.46 1664.17,138.17 1662.88,145.72 1671.53,148.50"/>
<polygon points="1671.53,148.50 1662.88,145.72 1661.83,153.69 1670.55,155.93"/>
<polygon points="1670.55,155.93 1661.83,153.69 1661.03,161.99 1669.81,163.67"/>
<polygon points="1669.81,163.67 1661.03,161.99 1660.49,170.56 1669.31,171.65"/>
<polygon points="1669.31,171.65 1660.49,170.56 1660.23,179.29 1669.06,179.80"/>
<polygon points="1669.06,179.80 1660.23,179.29 1660.23,188.12 1669.06,188.04"/>
<polygon points="1669.06,188.04 1660.23,188.12 1660.49,196.96 1669.31,196.27"/>
<polygon points="1669.31,196.27 1660.49,196.96 1661.03,205.72 1669.81,204.44"/>
<polygon points="1669.81,204.44 1661.03,205.72 1661.83,214.31 1670.55,212.46"/>
<polygon points="1670.55,212.46 1661.83,214.31 1662.88,222.66 1671.53,220.24"/>
<polygon points="1671.53,220.24 1662.88,222.66 1664.17,230.69 1672.74,227.72"/>
<polygon points="1672.74,227.72 1664.17,230.69 1665.70,238.31 1674.16,234.83"/>
<polygon points="1674.16,234.83 1665.70,238.31 1667.44,245.45 1675.79,241.49"/>
<polygon points="2840.63,400.41 2832.02,397.69 2828.55,403.96 2837.39,406.26"/>
<polygon points="2837.39,406.26 2828.55,403.96 2825.64,410.78 2834.68,412.62"/>
<polygon points="2834.68,412.62 2825.64,410.78 2823.32,418.09 2832.52,419.43"/>
<polygon points="2832.52,419.43 2823.32,418.09 2821.61,425.81 2830.92,426.63"/>
<polygon points="2830.92,426.63 2821.61,425.81 2820.53,433.88 2829.92,434.15"/>
<polygon points="2829.92,434.15 2820.53,433.88 2820.09,442.21 2829.51,441.92"/>
<polygon points="2829.51,441.92 2820.09,442.21 2820.30,450.72 2829.70,449.86"/>
<polygon points="2829.70,449.86 2820.30,450.72 2821.15,459.33 2830.49,457.89"/>
<polygon points="2830.49,457.89 2821.15,459.33 2822.63,467.97 2831.88,465.94"/>
<polygon points="2831.88,465.94 2822.63,467.97 2824.73,476.54 2833.84,473.93"/>
<polygon points="2833.84,473.93 2824.73,476.54 2827.44,484.96 2836.36,481.78"/>
<polygon points="2836.36,481.78 2827.44,484.96 2830.71,493.15 2839.41,489.42"/>
<polygon points="2839.41,489.42 2830.71,493.15 2834.53,501.04 2842.97,496.78"/>
<polygon points="2842.97,496.78 2834.53,501.04 2838.85,508.55 2847.00,503.78"/>
<polygon points="2847.00,503.78 2838.85,508.55 2843.64,515.60 2851.47,510.35"/>
<polygon points="2851.47,510.35 2843.64,515.60 2848.85,522.12 2856.32,516.43"/>
<polygon points="2856.32,516.43 2848.85,522.12 2854.42,528.06 2861.52,521.97"/>
<polygon points="2861.52,521.97 2854.42,528.06 2860.31,533.36 2867.01,526.91"/>
<polygon points="2867.01,526.91 2860.31,533.36 2866.45,537.97 2872.73,531.21"/>
<polygon points="2872.73,531.21 2866.45,537.97 2872.79,541.83 2878.65,534.81"/>
<polygon points="2878.65,534.81 2872.79,541.83 2879.27,544.92 2884.69,537.69"/>
<polygon points="2884.69,537.69 2879.27,544.92 2885.82,547.21 2890.80,539.82"/>
<polygon points="1197.76,175.48 1204.13,175.20 1204.06,166.38 1197.71,167.25"/>
<polygon points="1197.71,167.25 1204.06,166.38 1204.13,157.66 1197.76,159.13"/>
<polygon points="1197.76,159.13 1204.13,157.66 1204.31,149.14 1197.94,151.18"/>
<polygon points="427.21,240.15 434.21,245.65 439.54,242.10 432.18,236.83"/>
<polygon points="432.18,236.83 439.54,242.10 444.60,237.76 436.90,232.79"/>
<polygon points="436.90,232.79 444.60,237.76 449.34,232.70 441.32,228.06"/>
<polygon points="441.32,228.06 449.34,232.70 453.71,226.94 445.39,222.70"/>
<polygon points="445.39,222.70 453.71,226.94 457.67,220.56 449.09,216.75"/>
<polygon points="449.09,216.75 457.67,220.56 461.19,213.60 452.36,210.26"/>
<polygon points="452.36,210.26 461.19,213.60 464.22,206.15 455.19,203.31"/>
<polygon points="455.19,203.31 464.22,206.15 466.74,198.26 457.54,195.96"/>
<polygon points="457.54,195.96 466.74,198.26 468.73,190.02 459.39,188.28"/>
<polygon points="459.39,188.28 468.73,190.02 470.16,181.51 460.73,180.34"/>
<polygon points="460.73,180.34 470.16,181.51 471.03,172.80 461.54,172.22"/>
<polygon points="461.54,172.22 471.03,172.80 471.32,163.98 461.81,164.00"/>
<polygon points="461.81,164.00 471.32,163.98 471.03,155.14 461.54,155.75"/>
<polygon points="471.03,155.14 479.20,154.87 478.33,146.09 470.16,146.36"/>
<polygon points="470.16,146.36 478.33,146.09 476.90,137.46 468.73,137.73"/>
<polygon points="468.73,137.73 476.90,137.46 474.91,129.05 466.74,129.32"/>
<polygon points="466.74,129.32 474.91,129.05 472.39,120.96 464.22,121.23"/>
<polygon points="2579.52,493.43 2571.85,493.16 2573.08,501.79 2580.75,502.06"/>
<polygon points="2580.75,502.06 2573.08,501.79 2573.70,510.57 2581.37,510.83"/>
<polygon points="2581.37,510.83 2573.70,510.57 2573.70,519.41 2581.37,519.67"/>
<polygon points="2581.37,519.67 2573.70,519.41 2573.08,528.23 2580.75,528.49"/>
<polygon points="2580.75,528.49 2573.08,528.23 2571.84,536.94 2579.52,537.20"/>
<polygon points="2579.52,537.20 2571.84,536.94 2570.01,545.46 2577.69,545.72"/>
<polygon points="2577.69,545.72 2570.01,545.46 2567.59,553.71 2575.27,553.97"/>
<polygon points="1667.44,124.60 1657.02,124.81 1655.27,131.31 1665.70,131.11"/>
<polygon points="1665.70,131.11 1655.27,131.31 1653.75,138.38 1664.17,138.17"/>
<polygon points="1664.17,138.17 1653.75,138.38 1652.46,145.93 1662.88,145.72"/>
<polygon points="1662.88,145.72 1652.46,145.93 1651.41,153.89 1661.83,153.69"/>
<polygon points="1661.83,153.69 1651.41,153.89 1650.61,162.20 1661.03,161.99"/>
<polygon points="1661.03,161.99 1650.61,162.20 1650.07,170.76 1660.49,170.56"/>
<polygon points="1660.49,170.56 1650.07,170.76 1649.80,179.50 1660.23,179.29"/>
<polygon points="1660.23,179.29 1649.80,179.50 1649.80,188.33 1660.23,188.12"/>
<polygon points="1660.23,188.12 1649.80,188.33 1650.07,197.16 1660.49,196.96"/>
<polygon points="1660.49,196.96 1650.07,197.16 1650.61,205.92 1661.03,205.72"/>
<polygon points="1661.03,205.72 1650.61,205.92 1651.41,214.52 1661.83,214.31"/>
<polygon points="1661.83,214.31 1651.41,214.52 1652.46,222.87 1662.88,222.66"/>
<polygon points="1662.88,222.66 1652.46,222.87 1653.75,230.89 1664.17,230.69"/>
<polygon points="1664.17,230.69 1653.75,230.89 1655.28,238.51 1665.70,238.31"/>
<polygon points="1665.70,238.31 1655.28,238.51 1657.02,245.65 1667.44,245.45"/>
<polygon points="1142.40,133.05 1133.45,132.75 1135.64,140.59 1144.58,140.89"/>
<polygon points="1144.58,140.89 1135.64,140.59 1137.37,148.80 1146.31,149.10"/>
<polygon points="1146.31,149.10 1137.37,148.80 1138.61,157.29 1147.55,157.59"/>
<polygon points="1147.55,157.59 1138.61,157.29 1139.36,165.98 1148.30,166.28"/>
<polygon points="1148.30,166.28 1139.36,165.98 1139.61,174.78 1148.55,175.08"/>
<polygon points="1148.55,175.08 1139.61,174.78 1139.36,183.63 1148.30,183.93"/>
<polygon points="1148.30,183.93 1139.36,183.63 1138.61,192.42 1147.55,192.72"/>
<polygon points="1147.55,192.72 1138.61,192.42 1137.37,201.07 1146.31,201.37"/>
<polygon points="1146.31,201.37 1137.37,201.07 1135.64,209.50 1144.58,209.80"/>
<polygon points="1144.58,209.80 1135.64,209.50 1133.45,217.64 1142.40,217.94"/>
<polygon points="1142.40,217.94 1133.45,217.64 1130.82,225.39 1139.76,225.69"/>
<polygon points="2827.44,484.96 2820.09,487.33 2823.37,495.52 2830.71,493.15"/>
<polygon points="2830.71,493.15 2823.37,495.52 2827.19,503.41 2834.53,501.04"/>
<polygon points="1209.81,245.65 1220.66,245.46 1219.64,239.36 1208.79,239.55"/>
<polygon points="1208.79,239.55 1219.64,239.36 1218.70,232.66 1207.85,232.86"/>
<polygon points="1207.85,232.86 1218.70,232.66 1217.85,225.43 1207.00,225.63"/>
<polygon points="1207.00,225.63 1217.85,225.43 1217.09,217.74 1206.24,217.93"/>
<polygon points="1206.24,217.93 1217.09,217.74 1216.44,209.65 1205.59,209.84"/>
<polygon points="1205.59,209.84 1216.44,209.65 1215.90,201.25 1205.05,201.45"/>
<polygon points="1205.05,201.45 1215.90,201.25 1215.47,192.62 1204.62,192.82"/>
<polygon points="1204.62,192.82 1215.47,192.62 1215.16,183.84 1204.31,184.04"/>
<polygon points="1204.31,184.04 1215.16,183.84 1214.98,175.00 1204.13,175.20"/>
<polygon points="1204.13,175.20 1214.98,175.00 1214.91,166.18 1204.06,166.38"/>
<polygon points="1204.06,166.38 1214.91,166.18 1214.98,157.47 1204.13,157.66"/>
<polygon points="1204.13,157.66 1214.98,157.47 1215.16,148.95 1204.31,149.14"/>
<polygon points="1204.31,149.14 1215.16,148.95 1215.47,140.70 1204.62,140.89"/>
<polygon points="1204.62,140.89 1215.47,140.70 1215.90,132.80 1205.05,132.99"/>
<polygon points="1205.05,132.99 1215.90,132.80 1216.44,125.32 1205.59,125.52"/>
<polygon points="1205.59,125.52 1216.44,125.32 1217.09,118.35 1206.24,118.55"/>
<polygon points="1206.24,118.55 1217.09,118.35 1217.85,111.95 1207.00,112.14"/>
<polygon points="1207.00,112.14 1217.85,111.95 1218.70,106.17 1207.85,106.37"/>
<polygon points="461.19,213.60 469.36,213.33 472.39,205.88 464.22,206.15"/>
<polygon points="464.22,206.15 472.39,205.88 474.91,197.99 466.74,198.26"/>
<polygon points="466.74,198.26 474.91,197.99 476.90,189.75 468.73,190.02"/>
<polygon points="468.73,190.02 476.90,189.75 478.33,181.24 470.16,181.51"/>
<polygon points="470.16,181.51 478.33,181.24 479.20,172.53 471.03,172.80"/>
<polygon points="471.03,172.80 479.20,172.53 479.48,163.71 471.32,163.98"/>
<polygon points="471.32,163.98 479.48,163.71 479.20,154.87 471.03,155.14"/>
<polygon points="2561.11,461.74 2553.90,463.81 2557.26,470.75 2564.62,468.98"/>
<polygon points="2564.62,468.98 2557.26,470.75 2560.12,478.14 2567.59,476.68"/>
<polygon points="2567.59,476.68 2560.12,478.14 2562.44,485.90 2570.01,484.77"/>
<polygon points="2570.01,484.77 2562.44,485.90 2564.20,493.96 2571.85,493.16"/>
<polygon points="2571.85,493.16 2564.20,493.96 2565.38,502.24 2573.08,501.79"/>
<polygon points="2573.08,501.79 2565.38,502.24 2565.97,510.66 2573.70,510.57"/>
<polygon points="2573.70,510.57 2565.97,510.66 2565.97,519.14 2573.70,519.41"/>
<polygon points="2573.70,519.41 2565.97,519.14 2565.38,527.61 2573.08,528.23"/>
<polygon points="2573.08,528.23 2565.38,527.61 2564.20,535.96 2571.84,536.94"/>
<polygon points="2571.84,536.94 2564.20,535.96 2562.44,544.14 2570.01,545.46"/>
<polygon points="2570.01,545.46 2562.44,544.14 2560.12,552.05 2567.59,553.71"/>
<polygon points="2567.59,553.71 2560.12,552.05 2557.26,559.62 2564.62,561.60"/>
<polygon points="2564.62,561.60 2557.26,559.62 2553.90,566.79 2561.11,569.07"/>
<polygon points="2561.11,569.07 2553.90,566.79 2550.05,573.47 2557.10,576.03"/>
<polygon points="2557.10,576.03 2550.05,573.47 2545.77,579.61 2552.64,582.43"/>
<polygon points="2552.64,582.43 2545.77,579.61 2541.08,585.14 2547.75,588.20"/>
<polygon points="2547.75,588.20 2541.08,585.14 2536.04,590.02 2542.50,593.28"/>
<polygon points="1650.07,170.76 1644.25,171.63 1643.99,180.02 1649.80,179.50"/>
<polygon points="1649.80,179.50 1643.99,180.02 1643.99,188.49 1649.80,188.33"/>
<polygon points="1649.80,188.33 1643.99,188.49 1644.25,196.97 1650.07,197.16"/>
<polygon points="1650.07,197.16 1644.25,196.97 1644.76,205.37 1650.61,205.92"/>
<polygon points="1650.61,205.92 1644.76,205.37 1645.53,213.62 1651.41,214.52"/>
<polygon points="1120.55,106.46 1113.24,109.17 1116.88,114.62 1124.34,112.14"/>
<polygon points="1124.34,112.14 1116.88,114.62 1120.18,120.68 1127.77,118.46"/>
<polygon points="1127.77,118.46 1120.18,120.68 1123.10,127.30 1130.82,125.35"/>
<polygon points="1130.82,125.35 1123.10,127.30 1125.63,134.40 1133.45,132.75"/>
<polygon points="1133.45,132.75 1125.63,134.40 1127.73,141.92 1135.64,140.59"/>
<polygon points="1135.64,140.59 1127.73,141.92 1129.38,149.79 1137.37,148.80"/>
<polygon points="1137.37,148.80 1129.38,149.79 1130.58,157.94 1138.61,157.29"/>
<polygon points="1138.61,157.29 1130.58,157.94 1131.30,166.27 1139.36,165.98"/>
<polygon points="1139.36,165.98 1131.30,166.27 1131.54,174.72 1139.61,174.78"/>
<polygon points="1139.61,174.78 1131.54,174.72 1131.30,183.21 1139.36,183.63"/>
<polygon points="1139.36,183.63 1131.30,183.21 1130.58,191.64 1138.61,192.42"/>
<polygon points="1138.61,192.42 1130.58,191.64 1129.38,199.94 1137.37,201.07"/>
<polygon points="1137.37,201.07 1129.38,199.94 1127.73,208.04 1135.64,209.50"/>
<polygon points="1135.64,209.50 1127.73,208.04 1125.63,215.84 1133.45,217.64"/>
<polygon points="1133.45,217.64 1125.63,215.84 1123.10,223.28 1130.82,225.39"/>
<polygon points="1130.82,225.39 1123.10,223.28 1120.18,230.28 1127.77,232.69"/>
<polygon points="1127.77,232.69 1120.18,230.28 1116.88,236.79 1124.34,239.47"/>
<polygon points="1124.34,239.47 1116.88,236.79 1113.24,242.72 1120.55,245.65"/>
<polygon points="1219.64,239.36 1227.20,236.71 1226.30,230.29 1218.70,232.66"/>
<polygon points="1218.70,232.66 1226.30,230.29 1225.49,223.35 1217.85,225.43"/>
<polygon points="1217.85,225.43 1225.49,223.35 1224.76,215.96 1217.09,217.74"/>
<polygon points="1217.09,217.74 1224.76,215.96 1224.13,208.21 1216.44,209.65"/>
<polygon points="1216.44,209.65 1224.13,208.21 1223.61,200.15 1215.90,201.25"/>
<polygon points="1215.90,201.25 1223.61,200.15 1223.20,191.87 1215.47,192.62"/>
<polygon points="1215.47,192.62 1223.20,191.87 1222.91,183.45 1215.16,183.84"/>
<polygon points="1215.16,183.84 1222.91,183.45 1222.73,174.96 1214.98,175.00"/>
<polygon points="1214.98,175.00 1222.73,174.96 1222.67,166.50 1214.91,166.18"/>
<polygon points="1214.91,166.18 1222.67,166.50 1222.73,158.14 1214.98,157.47"/>
<polygon points="1214.98,157.47 1222.73,158.14 1222.91,149.96 1215.16,148.95"/>
<polygon points="1215.16,148.95 1222.91,149.96 1223.20,142.05 1215.47,140.70"/>
<polygon points="1215.47,140.70 1223.20,142.05 1223.61,134.47 1215.90,132.80"/>
<polygon points="1215.90,132.80 1223.61,134.47 1224.13,127.30 1216.44,125.32"/>
<polygon points="1216.44,125.32 1224.13,127.30 1224.76,120.61 1217.09,118.35"/>
<polygon points="1217.09,118.35 1224.76,120.61 1225.49,114.47 1217.85,111.95"/>
<polygon points="1217.85,111.95 1225.49,114.47 1226.30,108.92 1218.70,106.17"/>
<polygon points="1218.70,106.17 1226.30,108.92 1227.20,104.04 1219.64,101.08"/>
<polygon points="2531.10,431.57 2525.10,434.86 2530.70,437.93 2536.93,434.76"/>
<polygon points="2536.93,434.76 2530.70,437.93 2536.04,441.75 2542.50,438.75"/>
<polygon points="2542.50,438.75 2536.04,441.75 2541.08,446.30 2547.75,443.49"/>
<polygon points="2547.75,443.49 2541.08,446.30 2545.77,451.52 2552.64,448.94"/>
<polygon points="2552.64,448.94 2545.77,451.52 2550.05,457.38 2557.10,455.04"/>
<polygon points="2557.10,455.04 2550.05,457.38 2553.90,463.81 2561.11,461.74"/>
<polygon points="2553.90,463.81 2547.61,470.54 2550.55,476.61 2557.26,470.75"/>
<polygon points="2557.26,470.75 2550.55,476.61 2553.04,483.06 2560.12,478.14"/>
<polygon points="2560.12,478.14 2553.04,483.06 2555.07,489.83 2562.44,485.90"/>
<polygon points="2562.44,485.90 2555.07,489.83 2556.60,496.87 2564.20,493.96"/>
<polygon points="2564.20,493.96 2556.60,496.87 2557.64,504.10 2565.38,502.24"/>
<polygon points="2565.38,502.24 2557.64,504.10 2558.16,511.46 2565.97,510.66"/>
<polygon points="2565.97,510.66 2558.16,511.46 2558.16,518.86 2565.97,519.14"/>
<polygon points="2565.97,519.14 2558.16,518.86 2557.64,526.25 2565.38,527.61"/>
<polygon points="2565.38,527.61 2557.64,526.25 2556.60,533.55 2564.20,535.96"/>
<polygon points="2564.20,535.96 2556.60,533.55 2555.07,540.69 2562.44,544.14"/>
<polygon points="2562.44,544.14 2555.07,540.69 2553.04,547.60 2560.12,552.05"/>
<polygon points="2560.12,552.05 2553.04,547.60 2550.55,554.21 2557.26,559.62"/>
<polygon points="2557.26,559.62 2550.55,554.21 2547.61,560.47 2553.90,566.79"/>
<polygon points="2553.90,566.79 2547.61,560.47 2544.25,566.30 2550.05,573.47"/>
<polygon points="2550.05,573.47 2544.25,566.30 2540.51,571.66 2545.77,579.61"/>
<polygon points="2545.77,579.61 2540.51,571.66 2536.42,576.50 2541.08,585.14"/>
<polygon points="2541.08,585.14 2536.42,576.50 2532.02,580.76 2536.04,590.02"/>
<polygon points="2536.04,590.02 2532.02,580.76 2527.35,584.40 2530.70,594.19"/>
<polygon points="2530.70,594.19 2527.35,584.40 2522.46,587.39 2525.10,597.62"/>
<polygon points="2525.10,597.62 2522.46,587.39 2517.40,589.71 2519.30,600.28"/>
<polygon points="2519.30,600.28 2517.40,589.71 2512.21,591.33 2513.36,602.13"/>
<polygon points="2513.36,602.13 2512.21,591.33 2506.94,592.22 2507.33,603.16"/>
<polygon points="2507.33,603.16 2506.94,592.22 2501.65,592.40 2501.27,603.35"/>
<polygon points="2501.27,603.35 2501.65,592.40 2496.39,591.84 2495.24,602.72"/>
<polygon points="2495.24,602.72 2496.39,591.84 2491.19,590.57 2489.29,601.26"/>
<polygon points="2489.29,601.26 2491.19,590.57 2486.13,588.59 2483.49,598.99"/>
<polygon points="2483.49,598.99 2486.13,588.59 2481.24,585.91 2477.90,595.93"/>
<polygon points="2477.90,595.93 2481.24,585.91 2476.58,582.57 2472.55,592.10"/>
<polygon points="2472.55,592.10 2476.58,582.57 2472.18,578.60 2467.51,587.56"/>
<polygon points="2467.51,587.56 2472.18,578.60 2468.08,574.04 2462.83,582.33"/>
<polygon points="2462.83,582.33 2468.08,574.04 2464.34,568.92 2458.54,576.47"/>
<polygon points="2458.54,576.47 2464.34,568.92 2460.99,563.31 2454.70,570.04"/>
<polygon points="2454.70,570.04 2460.99,563.31 2458.05,557.25 2451.33,563.10"/>
<polygon points="2451.33,563.10 2458.05,557.25 2455.55,550.79 2448.48,555.71"/>
<polygon points="2448.48,555.71 2455.55,550.79 2453.53,544.02 2446.16,547.95"/>
<polygon points="2446.16,547.95 2453.53,544.02 2451.99,536.98 2444.40,539.89"/>
<polygon points="2444.40,539.89 2451.99,536.98 2450.96,529.75 2443.22,531.61"/>
<polygon points="2443.22,531.61 2450.96,529.75 2450.44,522.40 2442.62,523.19"/>
<polygon points="2442.62,523.19 2450.44,522.40 2450.44,514.99 2442.62,514.71"/>
<polygon points="2442.62,514.71 2450.44,514.99 2450.96,507.60 2443.22,506.25"/>
<polygon points="2443.22,506.25 2450.96,507.60 2451.99,500.30 2444.40,497.89"/>
<polygon points="2444.40,497.89 2451.99,500.30 2453.53,493.16 2446.16,489.71"/>
<polygon points="2446.16,489.71 2453.53,493.16 2455.55,486.25 2448.48,481.80"/>
<polygon points="2448.48,481.80 2455.55,486.25 2458.05,479.64 2451.33,474.23"/>
<polygon points="2451.33,474.23 2458.05,479.64 2460.99,473.39 2454.70,467.06"/>
<polygon points="2454.70,467.06 2460.99,473.39 2464.34,467.55 2458.54,460.38"/>
<polygon points="2458.54,460.38 2464.34,467.55 2468.09,462.19 2462.83,454.24"/>
<polygon points="2462.83,454.24 2468.09,462.19 2472.18,457.36 2467.51,448.71"/>
<polygon points="2467.51,448.71 2472.18,457.36 2476.58,453.10 2472.55,443.83"/>
<polygon points="2472.55,443.83 2476.58,453.10 2481.24,449.45 2477.90,439.66"/>
<polygon points="2477.90,439.66 2481.24,449.45 2486.13,446.46 2483.50,436.23"/>
<polygon points="2483.50,436.23 2486.13,446.46 2491.20,444.14 2489.29,433.58"/>
<polygon points="2489.29,433.58 2491.20,444.14 2496.39,442.53 2495.24,431.73"/>
<polygon points="2495.24,431.73 2496.39,442.53 2501.65,441.63 2501.27,430.70"/>
<polygon points="2501.27,430.70 2501.65,441.63 2506.94,441.45 2507.33,430.50"/>
<polygon points="2507.33,430.50 2506.94,441.45 2512.21,442.01 2513.36,431.13"/>
<polygon points="2513.36,431.13 2512.21,442.01 2517.40,443.28 2519.30,432.59"/>
<polygon points="2519.30,432.59 2517.40,443.28 2522.46,445.27 2525.10,434.86"/>
<polygon points="2525.10,434.86 2522.46,445.27 2527.35,447.94 2530.70,437.93"/>
<polygon points="2530.70,437.93 2527.35,447.94 2532.02,451.28 2536.04,441.75"/>
<polygon points="2536.04,441.75 2532.02,451.28 2536.42,455.25 2541.08,446.30"/>
<polygon points="2541.08,446.30 2536.42,455.25 2540.51,459.81 2545.77,451.52"/>
<polygon points="2545.77,451.52 2540.51,459.81 2544.25,464.93 2550.05,457.38"/>
<polygon points="2550.05,457.38 2544.25,464.93 2547.61,470.54 2553.90,463.81"/>
<polygon points="1430.26,173.26 1437.04,173.68 1437.62,166.79 1430.89,165.90"/>
<polygon points="1430.89,165.90 1437.62,166.79 1438.60,160.01 1431.93,158.65"/>
<polygon points="1431.93,158.65 1438.60,160.01 1439.95,153.40 1433.37,151.58"/>
<polygon points="1433.37,151.58 1439.95,153.40 1441.67,147.03 1435.21,144.77"/>
<polygon points="1435.21,144.77 1441.67,147.03 1443.73,140.95 1437.41,138.27"/>
<polygon points="1437.41,138.27 1443.73,140.95 1446.12,135.23 1439.96,132.15"/>
<polygon points="1439.96,132.15 1446.12,135.23 1448.81,129.92 1442.84,126.47"/>
<polygon points="1442.84,126.47 1448.81,129.92 1451.78,125.07 1446.02,121.29"/>
<polygon points="1446.02,121.29 1451.78,125.07 1455.00,120.73 1449.46,116.65"/>
<polygon points="1449.46,116.65 1455.00,120.73 1458.44,116.94 1453.14,112.60"/>
<polygon points="2181.22,149.55 2175.82,152.17 2176.32,158.21 2181.76,156.01"/>
<polygon points="2181.76,156.01 2176.32,158.21 2176.75,164.55 2182.21,162.79"/>
<polygon points="2182.21,162.79 2176.75,164.55 2177.08,171.14 2182.57,169.83"/>
<polygon points="2182.57,169.83 2177.08,171.14 2177.32,177.91 2182.82,177.06"/>
<polygon points="2182.82,177.06 2177.32,177.91 2177.46,184.79 2182.98,184.42"/>
<polygon points="2182.98,184.42 2177.46,184.79 2177.51,191.72 2183.03,191.83"/>
<polygon points="2183.03,191.83 2177.51,191.72 2177.46,198.63 2182.98,199.22"/>
<polygon points="2182.98,199.22 2177.46,198.63 2177.32,205.46 2182.82,206.52"/>
<polygon points="2182.82,206.52 2177.32,205.46 2177.08,212.14 2182.57,213.66"/>
<polygon points="2182.57,213.66 2177.08,212.14 2176.75,218.60 2182.21,220.57"/>
<polygon points="2182.21,220.57 2176.75,218.60 2176.32,224.79 2181.76,227.18"/>
<polygon points="2181.76,227.18 2176.32,224.79 2175.82,230.64 2181.22,233.43"/>
<polygon points="2181.22,233.43 2175.82,230.64 2175.23,236.09 2180.59,239.27"/>
<polygon points="2180.59,239.27 2175.23,236.09 2174.57,241.10 2179.88,244.62"/>
<polygon points="2496.39,591.84 2500.31,587.13 2495.45,585.94 2491.19,590.57"/>
<polygon points="2491.19,590.57 2495.45,585.94 2490.71,584.08 2486.13,588.59"/>
<polygon points="2486.13,588.59 2490.71,584.08 2486.14,581.58 2481.24,585.91"/>
<polygon points="2481.24,585.91 2486.14,581.58 2481.77,578.45 2476.58,582.57"/>
<polygon points="2476.58,582.57 2481.77,578.45 2477.66,574.74 2472.18,578.60"/>
<polygon points="2472.18,578.60 2477.66,574.74 2473.83,570.47 2468.08,574.04"/>
<polygon points="2468.08,574.04 2473.83,570.47 2470.33,565.69 2464.34,568.92"/>
<polygon points="2464.34,568.92 2470.33,565.69 2467.19,560.43 2460.99,563.31"/>
<polygon points="2460.99,563.31 2467.19,560.43 2464.44,554.76 2458.05,557.25"/>
<polygon points="2458.05,557.25 2464.44,554.76 2462.11,548.73 2455.55,550.79"/>
<polygon points="2455.55,550.79 2462.11,548.73 2460.21,542.39 2453.53,544.02"/>
<polygon points="2453.53,544.02 2460.21,542.39 2458.78,535.80 2451.99,536.98"/>
<polygon points="2451.99,536.98 2458.78,535.80 2457.81,529.04 2450.96,529.75"/>
<polygon points="2450.96,529.75 2457.81,529.04 2457.33,522.16 2450.44,522.40"/>
<polygon points="2450.44,522.40 2457.33,522.16 2457.33,515.23 2450.44,514.99"/>
<polygon points="2450.44,514.99 2457.33,515.23 2457.81,508.32 2450.96,507.60"/>
<polygon points="2450.96,507.60 2457.81,508.32 2458.78,501.49 2451.99,500.30"/>
<polygon points="2451.99,500.30 2458.78,501.49 2460.21,494.81 2453.53,493.16"/>
<polygon points="2453.53,493.16 2460.21,494.81 2462.11,488.35 2455.55,486.25"/>
<polygon points="2455.55,486.25 2462.11,488.35 2464.44,482.16 2458.05,479.64"/>
<polygon points="2458.05,479.64 2464.44,482.16 2467.19,476.31 2460.99,473.39"/>
<polygon points="2460.99,473.39 2467.19,476.31 2470.33,470.85 2464.34,467.55"/>
<polygon points="2464.34,467.55 2470.33,470.85 2473.83,465.84 2468.09,462.19"/>
<polygon points="2468.09,462.19 2473.83,465.84 2477.66,461.32 2472.18,457.36"/>
<polygon points="2472.18,457.36 2477.66,461.32 2481.78,457.33 2476.58,453.10"/>
<polygon points="2476.58,453.10 2481.78,457.33 2486.14,453.92 2481.24,449.45"/>
<polygon points="2481.24,449.45 2486.14,453.92 2490.72,451.12 2486.13,446.46"/>
<polygon points="2486.13,446.46 2490.72,451.12 2495.45,448.95 2491.20,444.14"/>
<polygon points="1453.14,245.65 1458.44,241.41 1455.00,238.08 1449.46,242.09"/>
<polygon points="1449.46,242.09 1455.00,238.08 1451.78,234.17 1446.02,237.91"/>
<polygon points="1446.02,237.91 1451.78,234.17 1448.81,229.71 1442.84,233.15"/>
<polygon points="1442.84,233.15 1448.81,229.71 1446.12,224.76 1439.96,227.86"/>
<polygon points="1439.96,227.86 1446.12,224.76 1443.73,219.36 1437.41,222.09"/>
<polygon points="1437.41,222.09 1443.73,219.36 1441.67,213.56 1435.21,215.88"/>
<polygon points="1435.21,215.88 1441.67,213.56 1439.95,207.41 1433.37,209.31"/>
<polygon points="1433.37,209.31 1439.95,207.41 1438.60,200.98 1431.93,202.44"/>
<polygon points="1431.93,202.44 1438.60,200.98 1437.62,194.33 1430.89,195.33"/>
<polygon points="1430.89,195.33 1437.62,194.33 1437.04,187.52 1430.26,188.05"/>
<polygon points="1430.26,188.05 1437.04,187.52 1436.84,180.61 1430.05,180.67"/>
<polygon points="1430.05,180.67 1436.84,180.61 1437.04,173.68 1430.26,173.26"/>
<polygon points="1437.04,173.68 1443.99,173.92 1444.58,167.03 1437.62,166.79"/>
<polygon points="1437.62,166.79 1444.58,167.03 1445.55,160.25 1438.60,160.01"/>
<polygon points="1438.60,160.01 1445.55,160.25 1446.90,153.64 1439.95,153.40"/>
<polygon points="1439.95,153.40 1446.90,153.64 1448.62,147.26 1441.67,147.03"/>
<polygon points="1441.67,147.03 1448.62,147.26 1450.68,141.18 1443.73,140.95"/>
<polygon points="2616.80,231.88 2610.83,231.26 2610.59,238.17 2616.56,238.79"/>
<polygon points="2616.56,238.79 2610.59,238.17 2610.83,245.03 2616.80,245.65"/>
<polygon points="2173.83,136.44 2165.40,136.47 2166.13,141.26 2174.57,141.23"/>
<polygon points="2174.57,141.23 2166.13,141.26 2166.79,146.52 2175.23,146.49"/>
<polygon points="2175.23,146.49 2166.79,146.52 2167.38,152.20 2175.82,152.17"/>
<polygon points="2175.82,152.17 2167.38,152.20 2167.89,158.24 2176.32,158.21"/>
<polygon points="2176.32,158.21 2167.89,158.24 2168.31,164.58 2176.75,164.55"/>
<polygon points="2176.75,164.55 2168.31,164.58 2168.64,171.17 2177.08,171.14"/>
<polygon points="2177.08,171.14 2168.64,171.17 2168.88,177.94 2177.32,177.91"/>
<polygon points="2177.32,177.91 2168.88,177.94 2169.02,184.82 2177.46,184.79"/>
<polygon points="2177.46,184.79 2169.02,184.82 2169.07,191.75 2177.51,191.72"/>
<polygon points="2177.51,191.72 2169.07,191.75 2169.02,198.67 2177.46,198.63"/>
<polygon points="2177.46,198.63 2169.02,198.67 2168.88,205.49 2177.32,205.46"/>
<polygon points="2177.32,205.46 2168.88,205.49 2168.64,212.17 2177.08,212.14"/>
<polygon points="2177.08,212.14 2168.64,212.17 2168.31,218.63 2176.75,218.60"/>
<polygon points="2176.75,218.60 2168.31,218.63 2167.89,224.82 2176.32,224.79"/>
<polygon points="2176.32,224.79 2167.89,224.82 2167.38,230.67 2175.82,230.64"/>
<polygon points="2175.82,230.64 2167.38,230.67 2166.79,236.13 2175.23,236.09"/>
<polygon points="2175.23,236.09 2166.79,236.13 2166.13,241.14 2174.57,241.10"/>
<polygon points="2174.57,241.10 2166.13,241.14 2165.40,245.65 2173.83,245.62"/>
<polygon points="2561.43,172.79 2555.09,173.21 2552.91,179.13 2559.25,178.71"/>
<polygon points="2559.25,178.71 2552.91,179.13 2551.13,185.37 2557.48,184.95"/>
<polygon points="2557.48,184.95 2551.13,185.37 2549.79,191.88 2556.13,191.46"/>
<polygon points="2556.13,191.46 2549.79,191.88 2548.89,198.59 2555.23,198.17"/>
<polygon points="2555.23,198.17 2548.89,198.59 2548.43,205.43 2554.78,205.01"/>
<polygon points="2554.78,205.01 2548.43,205.43 2548.43,212.34 2554.78,211.92"/>
<polygon points="2554.78,211.92 2548.43,212.34 2548.89,219.26 2555.23,218.84"/>
<polygon points="2555.23,218.84 2548.89,219.26 2549.79,226.12 2556.13,225.70"/>
<polygon points="2556.13,225.70 2549.79,226.12 2551.13,232.84 2557.48,232.42"/>
<polygon points="2557.48,232.42 2551.13,232.84 2552.91,239.38 2559.25,238.96"/>
<polygon points="2559.25,238.96 2552.91,239.38 2555.09,245.65 2561.43,245.23"/>
<polygon points="2458.78,535.80 2464.75,536.01 2463.78,529.24 2457.81,529.04"/>
<polygon points="2457.81,529.04 2463.78,529.24 2463.29,522.36 2457.33,522.16"/>
<polygon points="2457.33,522.16 2463.29,522.36 2463.29,515.43 2457.33,515.23"/>
<polygon points="2457.33,515.23 2463.29,515.43 2463.78,508.52 2457.81,508.32"/>
<polygon points="2457.81,508.32 2463.78,508.52 2464.75,501.69 2458.78,501.49"/>
<polygon points="2458.78,501.49 2464.75,501.69 2466.18,495.02 2460.21,494.81"/>
<polygon points="2460.21,494.81 2466.18,495.02 2468.08,488.55 2462.11,488.35"/>
<polygon points="2485.52,245.65 2493.63,245.50 2494.99,240.40 2486.89,240.55"/>
<polygon points="2486.89,240.55 2494.99,240.40 2496.19,234.86 2488.08,235.02"/>
<polygon points="2488.08,235.02 2496.19,234.86 2497.20,228.94 2489.10,229.10"/>
<polygon points="2489.10,229.10 2497.20,228.94 2498.02,222.70 2489.92,222.86"/>
<polygon points="2489.92,222.86 2498.02,222.70 2498.65,216.19 2490.54,216.35"/>
<polygon points="2490.54,216.35 2498.65,216.19 2499.07,209.48 2490.96,209.64"/>
<polygon points="2490.96,209.64 2499.07,209.48 2499.28,202.63 2491.17,202.79"/>
<polygon points="2491.17,202.79 2499.28,202.63 2499.28,195.71 2491.17,195.87"/>
<polygon points="2491.17,195.87 2499.28,195.71 2499.07,188.79 2490.96,188.94"/>
<polygon points="2490.96,188.94 2499.07,188.79 2498.65,181.92 2490.54,182.08"/>
<polygon points="2490.54,182.08 2498.65,181.92 2498.02,175.18 2489.92,175.34"/>
<polygon points="2489.92,175.34 2498.02,175.18 2497.20,168.64 2489.10,168.80"/>
<polygon points="2489.10,168.80 2497.20,168.64 2496.19,162.35 2488.08,162.51"/>
<polygon points="2488.08,162.51 2496.19,162.35 2494.99,156.38 2486.89,156.54"/>
<polygon points="2486.89,156.54 2494.99,156.38 2493.63,150.78 2485.52,150.94"/>
<polygon points="1441.67,213.56 1448.62,213.79 1446.90,207.65 1439.95,207.41"/>
<polygon points="1439.95,207.41 1446.90,207.65 1445.55,201.22 1438.60,200.98"/>
<polygon points="1438.60,200.98 1445.55,201.22 1444.58,194.56 1437.62,194.33"/>
<polygon points="1437.62,194.33 1444.58,194.56 1443.99,187.75 1437.04,187.52"/>
<polygon points="1437.04,187.52 1443.99,187.75 1443.79,180.85 1436.84,180.61"/>
<polygon points="1436.84,180.61 1443.79,180.85 1443.99,173.92 1437.04,173.68"/>
<polygon points="2953.87,485.28 2954.28,477.51 2954.09,469.57 2953.30,461.54 2951.91,453.49 2949.95,445.50 2947.43,437.65 2944.38,430.01 2940.82,422.65 2936.79,415.65 2932.32,409.08 2927.47,403.00 2922.27,397.46 2916.79,392.52 2911.06,388.22 2905.15,384.62 2899.10,381.74 2893.00,379.61 2886.88,378.25 2880.80,377.67 2874.84,377.89 2869.04,378.89 2863.46,380.68 2858.15,383.22 2853.17,386.50 2848.56,390.49 2844.37,395.14 2840.63,400.41 2837.39,406.26 2834.68,412.62 2832.52,419.43 2830.92,426.63 2829.92,434.15 2829.51,441.92 2829.70,449.86 2830.49,457.89 2831.88,465.94 2833.84,473.93 2836.36,481.78 2839.41,489.42 2842.97,496.78 2847.00,503.78 2851.47,510.35 2856.32,516.43 2861.52,521.97 2867.01,526.91 2872.73,531.21 2878.65,534.81 2884.69,537.69 2890.80,539.82 2896.92,541.18 2902.99,541.76 2908.95,541.54 2914.75,540.54 2920.33,538.75 2925.64,536.21 2930.62,532.93 2935.23,528.94 2939.42,524.29 2943.16,519.02 2946.40,513.17 2949.11,506.81 2951.28,500.00 2952.87,492.80"/>
<polygon points="2554.20,473.86 2551.05,468.60 2547.55,463.82 2543.73,459.55 2539.61,455.83 2535.25,452.71 2530.67,450.21 2525.94,448.35 2521.08,447.16 2516.15,446.64 2511.20,446.81 2506.28,447.65 2501.42,449.16 2496.68,451.32 2492.11,454.13 2487.74,457.54 2483.63,461.52 2479.80,466.04 2476.30,471.06 2473.16,476.51 2470.41,482.37 2468.08,488.55 2466.18,495.02 2464.75,501.69 2463.78,508.52 2463.29,515.43 2463.29,522.36 2463.78,529.24 2464.75,536.01 2466.18,542.59 2468.08,548.93 2470.41,554.96 2473.16,560.64 2476.30,565.89 2479.80,570.67 2483.63,574.94 2487.74,578.66 2492.11,581.78 2496.68,584.28 2501.42,586.14 2506.28,587.33 2511.20,587.85 2516.15,587.69 2521.08,586.85 2525.93,585.34 2530.67,583.17 2535.25,580.37 2539.61,576.96 2543.73,572.97 2547.55,568.45 2551.05,563.44 2554.19,557.98 2556.95,552.13 2559.28,545.94 2561.17,539.48 2562.61,532.80 2563.58,525.97 2564.06,519.06 2564.06,512.13 2563.58,505.25 2562.61,498.49 2561.17,491.90 2559.28,485.56 2556.95,479.53"/>
</g>
</svg>