{
  "accessors": [
    {
      "bufferView": 2,
      "componentType": 5126,
      "count": 3100,
      "max": [
        0.7662969827651978,
        1.0,
        0.7779650092124939
      ],
      "min": [
        -0.7662969827651978,
        -1.0,
        -0.7779650092124939
      ],
      "type": "VEC3"
    },
    {
      "bufferView": 2,
      "byteOffset": 37200,
      "componentType": 5126,
      "count": 3100,
      "max": [
        0.9998588562011719,
        0.9997749924659729,
        0.9999176263809204
      ],
      "min": [
        -0.9998570084571838,
        -0.9998506307601929,
        -0.9980652332305908
      ],
      "type": "VEC3"
    },
    {
      "bufferView": 3,
      "componentType": 5126,
      "count": 3100,
      "max": [
        0.9998769760131836,
        0.9981729984283447,
        0.998104989528656,
        1.0
      ],
      "min": [
        -0.9996920228004456,
        -0.9994890093803406,
        -0.96076500415802,
        1.0
      ],
      "type": "VEC4"
    },
    {
      "bufferView": 1,
      "componentType": 5126,
      "count": 3100,
      "max": [
        0.9980400204658508,
        0.9748899936676025
      ],
      "min": [
        0.0019499999471008778,
        0.0019499999471008778
      ],
      "type": "VEC2"
    },
    {
      "bufferView": 0,
      "componentType": 5125,
      "count": 17679,
      "type": "SCALAR"
    },
    {
      "bufferView": 2,
      "byteOffset": 74400,
      "componentType": 5126,
      "count": 3,
      "max": [
        -0.07108049839735031,
        0.086428701877594,
        0.3680419921875
      ],
      "min": [
        -0.07139589637517929,
        0.08483990281820297,
        0.366890013217926
      ],
      "type": "VEC3"
    },
    {
      "bufferView": 2,
      "byteOffset": 74436,
      "componentType": 5126,
      "count": 3,
      "max": [
        0.9734278917312622,
        -0.12010698765516281,
        0.19496797025203705
      ],
      "min": [
        0.9734278917312622,
        -0.12010698765516281,
        0.19496797025203705
      ],
      "type": "VEC3"
    },
    {
      "bufferView": 3,
      "byteOffset": 49600,
      "componentType": 5126,
      "count": 3,
      "max": [
        0.008831660263240337,
        0.8704689741134644,
        0.49214398860931396,
        1.0
      ],
      "min": [
        0.008831660263240337,
        0.8704689741134644,
        0.49214398860931396,
        1.0
      ],
      "type": "VEC4"
    },
    {
      "bufferView": 1,
      "byteOffset": 24800,
      "componentType": 5126,
      "count": 3,
      "max": [
        0.016909999772906303,
        0.5092700123786926
      ],
      "min": [
        0.016610000282526016,
        0.5089100003242493
      ],
      "type": "VEC2"
    },
    {
      "bufferView": 0,
      "byteOffset": 70716,
      "componentType": 5125,
      "count": 3,
      "type": "SCALAR"
    },
    {
      "bufferView": 2,
      "byteOffset": 74472,
      "componentType": 5126,
      "count": 3,
      "max": [
        -0.054407600313425064,
        0.11684899777173996,
        0.3676550090312958
      ],
      "min": [
        -0.0711228996515274,
        0.086428701877594,
        0.3547169864177704
      ],
      "type": "VEC3"
    },
    {
      "bufferView": 2,
      "byteOffset": 74508,
      "componentType": 5126,
      "count": 3,
      "max": [
        0.42948415875434875,
        0.1432330459356308,
        0.8916432857513428
      ],
      "min": [
        0.42948415875434875,
        0.1432330459356308,
        0.8916432857513428
      ],
      "type": "VEC3"
    },
    {
      "bufferView": 3,
      "byteOffset": 49648,
      "componentType": 5126,
      "count": 3,
      "max": [
        -0.022455299273133278,
        -0.9853429794311523,
        0.16910099983215332,
        1.0
      ],
      "min": [
        -0.022455299273133278,
        -0.9853429794311523,
        0.16910099983215332,
        1.0
      ],
      "type": "VEC4"
    },
    {
      "bufferView": 1,
      "byteOffset": 24824,
      "componentType": 5126,
      "count": 3,
      "max": [
        0.22492000460624695,
        0.45987001061439514
      ],
      "min": [
        0.21850000321865082,
        0.45313000679016113
      ],
      "type": "VEC2"
    },
    {
      "bufferView": 0,
      "byteOffset": 70728,
      "componentType": 5125,
      "count": 3,
      "type": "SCALAR"
    },
    {
      "bufferView": 2,
      "byteOffset": 74544,
      "componentType": 5126,
      "count": 3,
      "max": [
        -0.07108049839735031,
        0.086428701877594,
        0.3680419921875
      ],
      "min": [
        -0.07139589637517929,
        0.08483990281820297,
        0.366890013217926
      ],
      "type": "VEC3"
    },
    {
      "bufferView": 2,
      "byteOffset": 74580,
      "componentType": 5126,
      "count": 3,
      "max": [
        -0.9734275341033936,
        0.12010694295167923,
        -0.19496990740299225
      ],
      "min": [
        -0.9734275341033936,
        0.12010694295167923,
        -0.19496990740299225
      ],
      "type": "VEC3"
    },
    {
      "bufferView": 3,
      "byteOffset": 49696,
      "componentType": 5126,
      "count": 3,
      "max": [
        0.22898200154304504,
        0.5013279914855957,
        -0.8344079852104187,
        1.0
      ],
      "min": [
        0.22898200154304504,
        0.5013279914855957,
        -0.8344079852104187,
        1.0
      ],
      "type": "VEC4"
    },
    {
      "bufferView": 1,
      "byteOffset": 24848,
      "componentType": 5126,
      "count": 3,
      "max": [
        0.01696999929845333,
        0.5092700123786926
      ],
      "min": [
        0.016610000282526016,
        0.5089700222015381
      ],
      "type": "VEC2"
    },
    {
      "bufferView": 0,
      "byteOffset": 70740,
      "componentType": 5125,
      "count": 3,
      "type": "SCALAR"
    },
    {
      "bufferView": 2,
      "byteOffset": 74616,
      "componentType": 5126,
      "count": 48,
      "max": [
        -0.054407600313425064,
        0.11684899777173996,
        0.3680500090122223
      ],
      "min": [
        -0.0800120010972023,
        0.07403109967708588,
        0.34938499331474304
      ],
      "type": "VEC3"
    },
    {
      "bufferView": 2,
      "byteOffset": 75192,
      "componentType": 5126,
      "count": 48,
      "max": [
        0.7339582443237305,
        0.5977389216423035,
        0.8807446956634521
      ],
      "min": [
        -0.9976502656936646,
        -0.49780699610710144,
        -0.1673390418291092
      ],
      "type": "VEC3"
    },
    {
      "bufferView": 3,
      "byteOffset": 49744,
      "componentType": 5126,
      "count": 48,
      "max": [
        0.2937279939651489,
        -0.68954998254776,
        0.6935219764709473,
        1.0
      ],
      "min": [
        -0.20868100225925446,
        -0.9966970086097717,
        -0.6252589821815491,
        1.0
      ],
      "type": "VEC4"
    },
    {
      "bufferView": 1,
      "byteOffset": 24872,
      "componentType": 5126,
      "count": 48,
      "max": [
        0.22906999289989471,
        0.45987001061439514
      ],
      "min": [
        0.21850000321865082,
        0.4499000012874603
      ],
      "type": "VEC2"
    },
    {
      "bufferView": 0,
      "byteOffset": 70752,
      "componentType": 5125,
      "count": 48,
      "type": "SCALAR"
    },
    {
      "bufferView": 2,
      "byteOffset": 75768,
      "componentType": 5126,
      "count": 3,
      "max": [
        -0.07094009965658188,
        0.09056670218706131,
        0.368835985660553
      ],
      "min": [
        -0.07111360132694244,
        0.08929169923067093,
        0.3676129877567291
      ],
      "type": "VEC3"
    },
    {
      "bufferView": 2,
      "byteOffset": 75804,
      "componentType": 5126,
      "count": 3,
      "max": [
        -0.9936730265617371,
        -0.04256099835038185,
        -0.10393500328063965
      ],
      "min": [
        -0.9936730265617371,
        -0.04256099835038185,
        -0.10393500328063965
      ],
      "type": "VEC3"
    },
    {
      "bufferView": 3,
      "byteOffset": 50512,
      "componentType": 5126,
      "count": 3,
      "max": [
        -0.09506289660930634,
        0.8115230202674866,
        0.5765359997749329,
        1.0
      ],
      "min": [
        -0.09506289660930634,
        0.8115230202674866,
        0.5765359997749329,
        1.0
      ],
      "type": "VEC4"
    },
    {
      "bufferView": 1,
      "byteOffset": 25256,
      "componentType": 5126,
      "count": 3,
      "max": [
        0.01703999936580658,
        0.5126500129699707
      ],
      "min": [
        0.01662999950349331,
        0.5124300122261047
      ],
      "type": "VEC2"
    },
    {
      "bufferView": 0,
      "byteOffset": 70944,
      "componentType": 5125,
      "count": 3,
      "type": "SCALAR"
    },
    {
      "bufferView": 2,
      "byteOffset": 75840,
      "componentType": 5126,
      "count": 3,
      "max": [
        -0.07094009965658188,
        0.0903552994132042,
        0.368835985660553
      ],
      "min": [
        -0.07111360132694244,
        0.08929169923067093,
        0.3676129877567291
      ],
      "type": "VEC3"
    },
    {
      "bufferView": 2,
      "byteOffset": 75876,
      "componentType": 5126,
      "count": 3,
      "max": [
        -0.09070968627929688,
        -0.7577900886535645,
        0.6461624503135681
      ],
      "min": [
        -0.09070968627929688,
        -0.7577900886535645,
        0.6461624503135681
      ],
      "type": "VEC3"
    },
    {
      "bufferView": 3,
      "byteOffset": 50560,
      "componentType": 5126,
      "count": 3,
      "max": [
        -0.10695499926805496,
        0.6521239876747131,
        0.7505300045013428,
        1.0
      ],
      "min": [
        -0.10695499926805496,
        0.6521239876747131,
        0.7505300045013428,
        1.0
      ],
      "type": "VEC4"
    },
    {
      "bufferView": 1,
      "byteOffset": 25280,
      "componentType": 5126,
      "count": 3,
      "max": [
        0.017710000276565552,
        0.5250899791717529
      ],
      "min": [
        0.01730000041425228,
        0.5250800251960754
      ],
      "type": "VEC2"
    },
    {
      "bufferView": 0,
      "byteOffset": 70956,
      "componentType": 5125,
      "count": 3,
      "type": "SCALAR"
    },
    {
      "bufferView": 2,
      "byteOffset": 75912,
      "componentType": 5126,
      "count": 6,
      "max": [
        -0.07102649658918381,
        0.0903552994132042,
        0.36971500515937805
      ],
      "min": [
        -0.07119619846343994,
        0.0898239016532898,
        0.36822500824928284
      ],
      "type": "VEC3"
    },
    {
      "bufferView": 2,
      "byteOffset": 75984,
      "componentType": 5126,
      "count": 6,
      "max": [
        0.9936732649803162,
        0.042582012712955475,
        0.10392402112483978
      ],
      "min": [
        -0.9936744570732117,
        -0.04257301986217499,
        -0.10391803830862045
      ],
      "type": "VEC3"
    },
    {
      "bufferView": 3,
      "byteOffset": 50608,
      "componentType": 5126,
      "count": 6,
      "max": [
        1.0,
        0.0,
        0.0,
        -1.0
      ],
      "min": [
        1.0,
        0.0,
        0.0,
        -1.0
      ],
      "type": "VEC4"
    },
    {
      "bufferView": 1,
      "byteOffset": 25304,
      "componentType": 5126,
      "count": 6,
      "max": [
        0.005590000189840794,
        0.45945000648498535
      ],
      "min": [
        0.005590000189840794,
        0.45945000648498535
      ],
      "type": "VEC2"
    },
    {
      "bufferView": 0,
      "byteOffset": 70968,
      "componentType": 5125,
      "count": 6,
      "type": "SCALAR"
    },
    {
      "bufferView": 2,
      "byteOffset": 76056,
      "componentType": 5126,
      "count": 3,
      "max": [
        -0.07094009965658188,
        0.0903552994132042,
        0.368835985660553
      ],
      "min": [
        -0.07111360132694244,
        0.08929169923067093,
        0.3676129877567291
      ],
      "type": "VEC3"
    },
    {
      "bufferView": 2,
      "byteOffset": 76092,
      "componentType": 5126,
      "count": 3,
      "max": [
        0.09070968627929688,
        0.7577900886535645,
        -0.6461624503135681
      ],
      "min": [
        0.09070968627929688,
        0.7577900886535645,
        -0.6461624503135681
      ],
      "type": "VEC3"
    },
    {
      "bufferView": 3,
      "byteOffset": 50704,
      "componentType": 5126,
      "count": 3,
      "max": [
        1.0,
        0.0,
        0.0,
        1.0
      ],
      "min": [
        1.0,
        0.0,
        0.0,
        1.0
      ],
      "type": "VEC4"
    },
    {
      "bufferView": 1,
      "byteOffset": 25352,
      "componentType": 5126,
      "count": 3,
      "max": [
        0.017550000920891762,
        0.52360999584198
      ],
      "min": [
        0.017139999195933342,
        0.52360999584198
      ],
      "type": "VEC2"
    },
    {
      "bufferView": 0,
      "byteOffset": 70992,
      "componentType": 5125,
      "count": 3,
      "type": "SCALAR"
    },
    {
      "bufferView": 2,
      "byteOffset": 76128,
      "componentType": 5126,
      "count": 3,
      "max": [
        -0.07094009965658188,
        0.09056670218706131,
        0.368835985660553
      ],
      "min": [
        -0.07111360132694244,
        0.08929169923067093,
        0.3676129877567291
      ],
      "type": "VEC3"
    },
    {
      "bufferView": 2,
      "byteOffset": 76164,
      "componentType": 5126,
      "count": 3,
      "max": [
        0.9936731457710266,
        0.042559005320072174,
        0.10393501818180084
      ],
      "min": [
        0.9936731457710266,
        0.042559005320072174,
        0.10393501818180084
      ],
      "type": "VEC3"
    },
    {
      "bufferView": 3,
      "byteOffset": 50752,
      "componentType": 5126,
      "count": 3,
      "max": [
        -0.09507080167531967,
        0.8114299774169922,
        0.5766649842262268,
        1.0
      ],
      "min": [
        -0.09507080167531967,
        0.8114299774169922,
        0.5766649842262268,
        1.0
      ],
      "type": "VEC4"
    },
    {
      "bufferView": 1,
      "byteOffset": 25376,
      "componentType": 5126,
      "count": 3,
      "max": [
        0.01730000041425228,
        0.5109599828720093
      ],
      "min": [
        0.016899999231100082,
        0.5107399821281433
      ],
      "type": "VEC2"
    },
    {
      "bufferView": 0,
      "byteOffset": 71004,
      "componentType": 5125,
      "count": 3,
      "type": "SCALAR"
    },
    {
      "bufferView": 2,
      "byteOffset": 76200,
      "componentType": 5126,
      "count": 6,
      "max": [
        -0.07084909826517105,
        0.0898239016532898,
        0.36822500824928284
      ],
      "min": [
        -0.07102649658918381,
        0.0880168005824089,
        0.36726799607276917
      ],
      "type": "VEC3"
    },
    {
      "bufferView": 2,
      "byteOffset": 76272,
      "componentType": 5126,
      "count": 6,
      "max": [
        0.993676483631134,
        0.04256602004170418,
        0.10390005260705948
      ],
      "min": [
        -0.9936747550964355,
        -0.042570989578962326,
        -0.10391497611999512
      ],
      "type": "VEC3"
    },
    {
      "bufferView": 3,
      "byteOffset": 50800,
      "componentType": 5126,
      "count": 6,
      "max": [
        -0.08647129684686661,
        0.8803830146789551,
        0.4663139879703522,
        1.0
      ],
      "min": [
        -0.0864827036857605,
        0.8803820013999939,
        0.4663130044937134,
        1.0
      ],
      "type": "VEC4"
    },
    {
      "bufferView": 1,
      "byteOffset": 25400,
      "componentType": 5126,
      "count": 6,
      "max": [
        0.016820000484585762,
        0.514270007610321
      ],
      "min": [
        0.016300000250339508,
        0.5141199827194214
      ],
      "type": "VEC2"
    },
    {
      "bufferView": 0,
      "byteOffset": 71016,
      "componentType": 5125,
      "count": 6,
      "type": "SCALAR"
    },
    {
      "bufferView": 2,
      "byteOffset": 76344,
      "componentType": 5126,
      "count": 48,
      "max": [
        -0.07100570201873779,
        0.09313890337944031,
        0.3699299991130829
      ],
      "min": [
        -0.07119619846343994,
        0.0901447981595993,
        0.3679580092430115
      ],
      "type": "VEC3"
    },
    {
      "bufferView": 2,
      "byteOffset": 76920,
      "componentType": 5126,
      "count": 48,
      "max": [
        0.9990010261535645,
        0.04870998114347458,
        0.09075400978326797
      ],
      "min": [
        -0.999384880065918,
        -0.04700901731848717,
        -0.0861150324344635
      ],
      "type": "VEC3"
    },
    {
      "bufferView": 3,
      "byteOffset": 50896,
      "componentType": 5126,
      "count": 48,
      "max": [
        0.042504601180553436,
        -0.636023998260498,
        0.6599850058555603,
        1.0
      ],
      "min": [
        -0.08047900348901749,
        -0.7625910043716431,
        -0.7716370224952698,
        1.0
      ],
      "type": "VEC4"
    },
    {
      "bufferView": 1,
      "byteOffset": 25448,
      "componentType": 5126,
      "count": 48,
      "max": [
        0.005499999970197678,
        0.45649999380111694
      ],
      "min": [
        0.004370000213384628,
        0.4553700089454651
      ],
      "type": "VEC2"
    },
    {
      "bufferView": 0,
      "byteOffset": 71040,
      "componentType": 5125,
      "count": 48,
      "type": "SCALAR"
    },
    {
      "bufferView": 2,
      "byteOffset": 77496,
      "componentType": 5126,
      "count": 3,
      "max": [
        -0.07094159722328186,
        0.09416239708662033,
        0.3689900040626526
      ],
      "min": [
        -0.07103650271892548,
        0.09311649948358536,
        0.36781400442123413
      ],
      "type": "VEC3"
    },
    {
      "bufferView": 2,
      "byteOffset": 77532,
      "componentType": 5126,
      "count": 3,
      "max": [
        -0.9980336427688599,
        0.05284698307514191,
        -0.033706989139318466
      ],
      "min": [
        -0.9980336427688599,
        0.05284698307514191,
        -0.033706989139318466
      ],
      "type": "VEC3"
    },
    {
      "bufferView": 3,
      "byteOffset": 51664,
      "componentType": 5126,
      "count": 3,
      "max": [
        1.0,
        0.0,
        0.0,
        -1.0
      ],
      "min": [
        1.0,
        0.0,
        0.0,
        -1.0
      ],
      "type": "VEC4"
    },
    {
      "bufferView": 1,
      "byteOffset": 25832,
      "componentType": 5126,
      "count": 3,
      "max": [
        0.005319999996572733,
        0.45796999335289
      ],
      "min": [
        0.005319999996572733,
        0.45796999335289
      ],
      "type": "VEC2"
    },
    {
      "bufferView": 0,
      "byteOffset": 71232,
      "componentType": 5125,
      "count": 3,
      "type": "SCALAR"
    },
    {
      "bufferView": 2,
      "byteOffset": 77568,
      "componentType": 5126,
      "count": 3,
      "max": [
        -0.07094159722328186,
        0.09416239708662033,
        0.3689900040626526
      ],
      "min": [
        -0.07103650271892548,
        0.0931273028254509,
        0.36781400442123413
      ],
      "type": "VEC3"
    },
    {
      "bufferView": 2,
      "byteOffset": 77604,
      "componentType": 5126,
      "count": 3,
      "max": [
        0.7854748368263245,
        -0.4946320056915283,
        -0.371979296207428
      ],
      "min": [
        0.7854748368263245,
        -0.4946320056915283,
        -0.371979296207428
      ],
      "type": "VEC3"
    },
    {
      "bufferView": 3,
      "byteOffset": 51712,
      "componentType": 5126,
      "count": 3,
      "max": [
        1.0,
        0.0,
        0.0,
        1.0
      ],
      "min": [
        1.0,
        0.0,
        0.0,
        1.0
      ],
      "type": "VEC4"
    },
    {
      "bufferView": 1,
      "byteOffset": 25856,
      "componentType": 5126,
      "count": 3,
      "max": [
        0.01721999980509281,
        0.5221400260925293
      ],
      "min": [
        0.016820000484585762,
        0.5221400260925293
      ],
      "type": "VEC2"
    },
    {
      "bufferView": 0,
      "byteOffset": 71244,
      "componentType": 5125,
      "count": 3,
      "type": "SCALAR"
    },
    {
      "bufferView": 2,
      "byteOffset": 77640,
      "componentType": 5126,
      "count": 6,
      "max": [
        -0.07087840139865875,
        0.09520749747753143,
        0.3684009909629822
      ],
      "min": [
        -0.07098949700593948,
        0.09364490211009979,
        0.3675769865512848
      ],
      "type": "VEC3"
    },
    {
      "bufferView": 2,
      "byteOffset": 77712,
      "componentType": 5126,
      "count": 6,
      "max": [
        0.9980332255363464,
        0.05284898728132248,
        0.0337040089070797
      ],
      "min": [
        -0.9980337619781494,
        -0.052857011556625366,
        -0.03369799256324768
      ],
      "type": "VEC3"
    },
    {
      "bufferView": 3,
      "byteOffset": 51760,
      "componentType": 5126,
      "count": 6,
      "max": [
        0.062477901577949524,
        0.8827040195465088,
        -0.46575799584388733,
        1.0
      ],
      "min": [
        0.06246799975633621,
        0.8827040195465088,
        -0.46575799584388733,
        1.0
      ],
      "type": "VEC4"
    },
    {
      "bufferView": 1,
      "byteOffset": 25880,
      "componentType": 5126,
      "count": 6,
      "max": [
        0.0170499999076128,
        0.5191900134086609
      ],
      "min": [
        0.016599999740719795,
        0.5190500020980835
      ],
      "type": "VEC2"
    },
    {
      "bufferView": 0,
      "byteOffset": 71256,
      "componentType": 5125,
      "count": 6,
      "type": "SCALAR"
    },
    {
      "bufferView": 2,
      "byteOffset": 77784,
      "componentType": 5126,
      "count": 3,
      "max": [
        -0.07094159722328186,
        0.09416239708662033,
        0.3689900040626526
      ],
      "min": [
        -0.07103650271892548,
        0.0931273028254509,
        0.36781400442123413
      ],
      "type": "VEC3"
    },
    {
      "bufferView": 2,
      "byteOffset": 77820,
      "componentType": 5126,
      "count": 3,
      "max": [
        -0.7854748368263245,
        0.4946320056915283,
        0.371979296207428
      ],
      "min": [
        -0.7854748368263245,
        0.4946320056915283,
        0.371979296207428
      ],
      "type": "VEC3"
    },
    {
      "bufferView": 3,
      "byteOffset": 51856,
      "componentType": 5126,
      "count": 3,
      "max": [
        1.0,
        0.0,
        0.0,
        1.0
      ],
      "min": [
        1.0,
        0.0,
        0.0,
        1.0
      ],
      "type": "VEC4"
    },
    {
      "bufferView": 1,
      "byteOffset": 25928,
      "componentType": 5126,
      "count": 3,
      "max": [
        0.016920000314712524,
        0.5206599831581116
      ],
      "min": [
        0.016519999131560326,
        0.5206599831581116
      ],
      "type": "VEC2"
    },
    {
      "bufferView": 0,
      "byteOffset": 71280,
      "componentType": 5125,
      "count": 3,
      "type": "SCALAR"
    },
    {
      "bufferView": 2,
      "byteOffset": 77856,
      "componentType": 5126,
      "count": 3,
      "max": [
        -0.07094159722328186,
        0.09416239708662033,
        0.3689900040626526
      ],
      "min": [
        -0.07103650271892548,
        0.09311649948358536,
        0.36781400442123413
      ],
      "type": "VEC3"
    },
    {
      "bufferView": 2,
      "byteOffset": 77892,
      "componentType": 5126,
      "count": 3,
      "max": [
        0.9980334639549255,
        -0.052849024534225464,
        0.03370901569724083
      ],
      "min": [
        0.9980334639549255,
        -0.052849024534225464,
        0.03370901569724083
      ],
      "type": "VEC3"
    },
    {
      "bufferView": 3,
      "byteOffset": 51904,
      "componentType": 5126,
      "count": 3,
      "max": [
        -0.055478498339653015,
        -0.4943859875202179,
        0.8674700260162354,
        1.0
      ],
      "min": [
        -0.055478498339653015,
        -0.4943859875202179,
        0.8674700260162354,
        1.0
      ],
      "type": "VEC4"
    },
    {
      "bufferView": 1,
      "byteOffset": 25952,
      "componentType": 5126,
      "count": 3,
      "max": [
        0.017969999462366104,
        0.5159400105476379
      ],
      "min": [
        0.017570000141859055,
        0.5157399773597717
      ],
      "type": "VEC2"
    },
    {
      "bufferView": 0,
      "byteOffset": 71292,
      "componentType": 5125,
      "count": 3,
      "type": "SCALAR"
    },
    {
      "bufferView": 2,
      "byteOffset": 77928,
      "componentType": 5126,
      "count": 6,
      "max": [
        -0.07098949700593948,
        0.09364490211009979,
        0.3699299991130829
      ],
      "min": [
        -0.07106740027666092,
        0.0931273028254509,
        0.3684009909629822
      ],
      "type": "VEC3"
    },
    {
      "bufferView": 2,
      "byteOffset": 78000,
      "componentType": 5126,
      "count": 6,
      "max": [
        0.9980342388153076,
        0.05283800885081291,
        0.03370600566267967
      ],
      "min": [
        -0.9980341196060181,
        -0.052836012095212936,
        -0.033705003559589386
      ],
      "type": "VEC3"
    },
    {
      "bufferView": 3,
      "byteOffset": 51952,
      "componentType": 5126,
      "count": 6,
      "max": [
        0.04863850027322769,
        0.313836008310318,
        -0.9482309818267822,
        1.0
      ],
      "min": [
        0.048638198524713516,
        0.313836008310318,
        -0.9482309818267822,
        1.0
      ],
      "type": "VEC4"
    },
    {
      "bufferView": 1,
      "byteOffset": 25976,
      "componentType": 5126,
      "count": 6,
      "max": [
        0.017100000753998756,
        0.5175700187683105
      ],
      "min": [
        0.016690000891685486,
        0.5174099802970886
      ],
      "type": "VEC2"
    },
    {
      "bufferView": 0,
      "byteOffset": 71304,
      "componentType": 5125,
      "count": 6,
      "type": "SCALAR"
    },
    {
      "bufferView": 2,
      "byteOffset": 78072,
      "componentType": 5126,
      "count": 12,
      "max": [
        0.3599349856376648,
        0.8436239957809448,
        0.411998987197876
      ],
      "min": [
        0.1978760063648224,
        0.7990360260009766,
        0.3385089933872223
      ],
      "type": "VEC3"
    },
    {
      "bufferView": 2,
      "byteOffset": 78216,
      "componentType": 5126,
      "count": 12,
      "max": [
        0.08500702679157257,
        0.9935107827186584,
        0.1013069748878479
      ],
      "min": [
        -0.11654104292392731,
        -0.9956633448600769,
        -0.8285691142082214
      ],
      "type": "VEC3"
    },
    {
      "bufferView": 3,
      "byteOffset": 52048,
      "componentType": 5126,
      "count": 12,
      "max": [
        0.9642220139503479,
        0.25482600927352905,
        0.6620929837226868,
        1.0
      ],
      "min": [
        -0.845757007598877,
        -0.10612200200557709,
        -0.5255500078201294,
        1.0
      ],
      "type": "VEC4"
    },
    {
      "bufferView": 1,
      "byteOffset": 26024,
      "componentType": 5126,
      "count": 12,
      "max": [
        0.9268199801445007,
        0.16223999857902527
      ],
      "min": [
        0.8697599768638611,
        0.13287000358104706
      ],
      "type": "VEC2"
    },
    {
      "bufferView": 0,
      "byteOffset": 71328,
      "componentType": 5125,
      "count": 12,
      "type": "SCALAR"
    },
    {
      "bufferView": 2,
      "byteOffset": 78360,
      "componentType": 5126,
      "count": 3,
      "max": [
        0.23952099680900574,
        0.8363350033760071,
        0.38381099700927734
      ],
      "min": [
        0.1978760063648224,
        0.8331699967384338,
        0.37245601415634155
      ],
      "type": "VEC3"
    },
    {
      "bufferView": 2,
      "byteOffset": 78396,
      "componentType": 5126,
      "count": 3,
      "max": [
        0.08785305172204971,
        -0.995092511177063,
        0.045528024435043335
      ],
      "min": [
        0.08785295486450195,
        -0.9950925707817078,
        0.045527976006269455
      ],
      "type": "VEC3"
    },
    {
      "bufferView": 3,
      "byteOffset": 52240,
      "componentType": 5126,
      "count": 3,
      "max": [
        0.40612098574638367,
        0.07751379907131195,
        0.9105259776115417,
        1.0
      ],
      "min": [
        0.40612098574638367,
        0.07751370221376419,
        0.9105259776115417,
        1.0
      ],
      "type": "VEC4"
    },
    {
      "bufferView": 1,
      "byteOffset": 26120,
      "componentType": 5126,
      "count": 3,
      "max": [
        0.04831000044941902,
        0.5966200232505798
      ],
      "min": [
        0.04732999950647354,
        0.5855600237846375
      ],
      "type": "VEC2"
    },
    {
      "bufferView": 0,
      "byteOffset": 71376,
      "componentType": 5125,
      "count": 3,
      "type": "SCALAR"
    },
    {
      "bufferView": 2,
      "byteOffset": 78432,
      "componentType": 5126,
      "count": 6,
      "max": [
        0.24084800481796265,
        0.8448160290718079,
        0.38677600026130676
      ],
      "min": [
        0.20174400508403778,
        0.8355200290679932,
        0.37247100472450256
      ],
      "type": "VEC3"
    },
    {
      "bufferView": 2,
      "byteOffset": 78504,
      "componentType": 5126,
      "count": 6,
      "max": [
        0.18692994117736816,
        -0.22301499545574188,
        0.8239706754684448
      ],
      "min": [
        -0.3765980005264282,
        -0.5349107980728149,
        -0.8991320133209229
      ],
      "type": "VEC3"
    },
    {
      "bufferView": 3,
      "byteOffset": 52288,
      "componentType": 5126,
      "count": 6,
      "max": [
        0.8112760186195374,
        0.389165997505188,
        -0.28319600224494934,
        1.0
      ],
      "min": [
        -0.6818040013313293,
        -0.6744949817657471,
        -0.4363259971141815,
        1.0
      ],
      "type": "VEC4"
    },
    {
      "bufferView": 1,
      "byteOffset": 26144,
      "componentType": 5126,
      "count": 6,
      "max": [
        0.89274001121521,
        0.13334999978542328
      ],
      "min": [
        0.8867400288581848,
        0.12318000197410583
      ],
      "type": "VEC2"
    },
    {
      "bufferView": 0,
      "byteOffset": 71388,
      "componentType": 5125,
      "count": 6,
      "type": "SCALAR"
    },
    {
      "bufferView": 2,
      "byteOffset": 78576,
      "componentType": 5126,
      "count": 3,
      "max": [
        0.23952099680900574,
        0.8363350033760071,
        0.38381099700927734
      ],
      "min": [
        0.1978760063648224,
        0.8331699967384338,
        0.37245601415634155
      ],
      "type": "VEC3"
    },
    {
      "bufferView": 2,
      "byteOffset": 78612,
      "componentType": 5126,
      "count": 3,
      "max": [
        -0.08785899728536606,
        0.9951080083847046,
        -0.045177001506090164
      ],
      "min": [
        -0.08785899728536606,
        0.9951080083847046,
        -0.045177001506090164
      ],
      "type": "VEC3"
    },
    {
      "bufferView": 3,
      "byteOffset": 52384,
      "componentType": 5126,
      "count": 3,
      "max": [
        -0.13262900710105896,
        -0.05663440003991127,
        -0.989546000957489,
        1.0
      ],
      "min": [
        -0.13262900710105896,
        -0.05663440003991127,
        -0.989546000957489,
        1.0
      ],
      "type": "VEC4"
    },
    {
      "bufferView": 1,
      "byteOffset": 26192,
      "componentType": 5126,
      "count": 3,
      "max": [
        0.04830000177025795,
        0.5966200232505798
      ],
      "min": [
        0.04732999950647354,
        0.5855600237846375
      ],
      "type": "VEC2"
    },
    {
      "bufferView": 0,
      "byteOffset": 71412,
      "componentType": 5125,
      "count": 3,
      "type": "SCALAR"
    },
    {
      "bufferView": 2,
      "byteOffset": 78648,
      "componentType": 5126,
      "count": 18,
      "max": [
        0.2990899980068207,
        0.8448160290718079,
        0.5073350071907043
      ],
      "min": [
        -0.07888200134038925,
        0.29584801197052,
        0.37245601415634155
      ],
      "type": "VEC3"
    },
    {
      "bufferView": 2,
      "byteOffset": 78864,
      "componentType": 5126,
      "count": 18,
      "max": [
        0.6268560290336609,
        0.987775981426239,
        0.6497730016708374
      ],
      "min": [
        -0.9440456628799438,
        -0.4299379885196686,
        -0.908257007598877
      ],
      "type": "VEC3"
    },
    {
      "bufferView": 3,
      "byteOffset": 52432,
      "componentType": 5126,
      "count": 18,
      "max": [
        0.8500080108642578,
        0.14213700592517853,
        0.808788001537323,
        1.0
      ],
      "min": [
        0.09330630302429199,
        -0.8453810214996338,
        -0.9171749949455261,
        1.0
      ],
      "type": "VEC4"
    },
    {
      "bufferView": 1,
      "byteOffset": 26216,
      "componentType": 5126,
      "count": 18,
      "max": [
        0.9067999720573425,
        0.5936300158500671
      ],
      "min": [
        0.13971999287605286,
        0.10324999690055847
      ],
      "type": "VEC2"
    },
    {
      "bufferView": 0,
      "byteOffset": 71424,
      "componentType": 5125,
      "count": 18,
      "type": "SCALAR"
    }
  ],
  "asset": {
    "extras": {
      "author": "Danylo Tyupa (https://sketchfab.com/danzl0)",
      "license": "CC-BY-4.0 (http://creativecommons.org/licenses/by/4.0/)",
      "source": "https://sketchfab.com/3d-models/platform-26a2464e19094fdd98bb2ecc9c8ba74a",
      "title": "Platform"
    },
    "generator": "Sketchfab-15.61.0",
    "version": "2.0"
  },
  "bufferViews": [
    {
      "buffer": 0,
      "byteLength": 71496,
      "name": "floatBufferViews",
      "target": 34963
    },
    {
      "buffer": 0,
      "byteLength": 26360,
      "byteOffset": 71496,
      "byteStride": 8,
      "name": "floatBufferViews",
      "target": 34962
    },
    {
      "buffer": 0,
      "byteLength": 79080,
      "byteOffset": 97856,
      "byteStride": 12,
      "name": "floatBufferViews",
      "target": 34962
    },
    {
      "buffer": 0,
      "byteLength": 52720,
      "byteOffset": 176936,
      "byteStride": 16,
      "name": "floatBufferViews",
      "target": 34962
    }
  ],
  "buffers": [
    {
      "byteLength": 229656,
      "uri": "scene.bin"
    }
  ],
  "extensionsUsed": [
    "KHR_materials_emissive_strength"
  ],
  "images": [
    {
      "uri": "textures/platform_defaultMat_baseColor.jpeg"
    },
    {
      "uri": "textures/platform_defaultMat_metallicRoughness.png"
    },
    {
      "uri": "textures/platform_defaultMat_emissive.jpeg"
    },
    {
      "uri": "textures/platform_defaultMat_normal.png"
    }
  ],
  "materials": [
    {
      "doubleSided": true,
      "emissiveFactor": [
        1.0,
        1.0,
        1.0
      ],
      "emissiveTexture": {
        "index": 2
      },
      "extensions": {
        "KHR_materials_emissive_strength": {
          "emissiveStrength": 2.4
        }
      },
      "name": "platform_defaultMat",
      "normalTexture": {
        "index": 3
      },
      "occlusionTexture": {
        "index": 1
      },
      "pbrMetallicRoughness": {
        "baseColorTexture": {
          "index": 0
        },
        "metallicRoughnessTexture": {
          "index": 1
        }
      }
    }
  ],
  "meshes": [
    {
      "name": "defaultMaterial",
      "primitives": [
        {
          "attributes": {
            "NORMAL": 1,
            "POSITION": 0,
            "TANGENT": 2,
            "TEXCOORD_0": 3
          },
          "indices": 4,
          "material": 0,
          "mode": 4
        }
      ]
    },
    {
      "name": "defaultMaterial",
      "primitives": [
        {
          "attributes": {
            "NORMAL": 6,
            "POSITION": 5,
            "TANGENT": 7,
            "TEXCOORD_0": 8
          },
          "indices": 9,
          "material": 0,
          "mode": 4
        }
      ]
    },
    {
      "name": "defaultMaterial",
      "primitives": [
        {
          "attributes": {
            "NORMAL": 11,
            "POSITION": 10,
            "TANGENT": 12,
            "TEXCOORD_0": 13
          },
          "indices": 14,
          "material": 0,
          "mode": 4
        }
      ]
    },
    {
      "name": "defaultMaterial",
      "primitives": [
        {
          "attributes": {
            "NORMAL": 16,
            "POSITION": 15,
            "TANGENT": 17,
            "TEXCOORD_0": 18
          },
          "indices": 19,
          "material": 0,
          "mode": 4
        }
      ]
    },
    {
      "name": "defaultMaterial",
      "primitives": [
        {
          "attributes": {
            "NORMAL": 21,
            "POSITION": 20,
            "TANGENT": 22,
            "TEXCOORD_0": 23
          },
          "indices": 24,
          "material": 0,
          "mode": 4
        }
      ]
    },
    {
      "name": "defaultMaterial",
      "primitives": [
        {
          "attributes": {
            "NORMAL": 26,
            "POSITION": 25,
            "TANGENT": 27,
            "TEXCOORD_0": 28
          },
          "indices": 29,
          "material": 0,
          "mode": 4
        }
      ]
    },
    {
      "name": "defaultMaterial",
      "primitives": [
        {
          "attributes": {
            "NORMAL": 31,
            "POSITION": 30,
            "TANGENT": 32,
            "TEXCOORD_0": 33
          },
          "indices": 34,
          "material": 0,
          "mode": 4
        }
      ]
    },
    {
      "name": "defaultMaterial",
      "primitives": [
        {
          "attributes": {
            "NORMAL": 36,
            "POSITION": 35,
            "TANGENT": 37,
            "TEXCOORD_0": 38
          },
          "indices": 39,
          "material": 0,
          "mode": 4
        }
      ]
    },
    {
      "name": "defaultMaterial",
      "primitives": [
        {
          "attributes": {
            "NORMAL": 41,
            "POSITION": 40,
            "TANGENT": 42,
            "TEXCOORD_0": 43
          },
          "indices": 44,
          "material": 0,
          "mode": 4
        }
      ]
    },
    {
      "name": "defaultMaterial",
      "primitives": [
        {
          "attributes": {
            "NORMAL": 46,
            "POSITION": 45,
            "TANGENT": 47,
            "TEXCOORD_0": 48
          },
          "indices": 49,
          "material": 0,
          "mode": 4
        }
      ]
    },
    {
      "name": "defaultMaterial",
      "primitives": [
        {
          "attributes": {
            "NORMAL": 51,
            "POSITION": 50,
            "TANGENT": 52,
            "TEXCOORD_0": 53
          },
          "indices": 54,
          "material": 0,
          "mode": 4
        }
      ]
    },
    {
      "name": "defaultMaterial",
      "primitives": [
        {
          "attributes": {
            "NORMAL": 56,
            "POSITION": 55,
            "TANGENT": 57,
            "TEXCOORD_0": 58
          },
          "indices": 59,
          "material": 0,
          "mode": 4
        }
      ]
    },
    {
      "name": "defaultMaterial",
      "primitives": [
        {
          "attributes": {
            "NORMAL": 61,
            "POSITION": 60,
            "TANGENT": 62,
            "TEXCOORD_0": 63
          },
          "indices": 64,
          "material": 0,
          "mode": 4
        }
      ]
    },
    {
      "name": "defaultMaterial",
      "primitives": [
        {
          "attributes": {
            "NORMAL": 66,
            "POSITION": 65,
            "TANGENT": 67,
            "TEXCOORD_0": 68
          },
          "indices": 69,
          "material": 0,
          "mode": 4
        }
      ]
    },
    {
      "name": "defaultMaterial",
      "primitives": [
        {
          "attributes": {
            "NORMAL": 71,
            "POSITION": 70,
            "TANGENT": 72,
            "TEXCOORD_0": 73
          },
          "indices": 74,
          "material": 0,
          "mode": 4
        }
      ]
    },
    {
      "name": "defaultMaterial",
      "primitives": [
        {
          "attributes": {
            "NORMAL": 76,
            "POSITION": 75,
            "TANGENT": 77,
            "TEXCOORD_0": 78
          },
          "indices": 79,
          "material": 0,
          "mode": 4
        }
      ]
    },
    {
      "name": "defaultMaterial",
      "primitives": [
        {
          "attributes": {
            "NORMAL": 81,
            "POSITION": 80,
            "TANGENT": 82,
            "TEXCOORD_0": 83
          },
          "indices": 84,
          "material": 0,
          "mode": 4
        }
      ]
    },
    {
      "name": "defaultMaterial",
      "primitives": [
        {
          "attributes": {
            "NORMAL": 86,
            "POSITION": 85,
            "TANGENT": 87,
            "TEXCOORD_0": 88
          },
          "indices": 89,
          "material": 0,
          "mode": 4
        }
      ]
    },
    {
      "name": "defaultMaterial",
      "primitives": [
        {
          "attributes": {
            "NORMAL": 91,
            "POSITION": 90,
            "TANGENT": 92,
            "TEXCOORD_0": 93
          },
          "indices": 94,
          "material": 0,
          "mode": 4
        }
      ]
    },
    {
      "name": "defaultMaterial",
      "primitives": [
        {
          "attributes": {
            "NORMAL": 96,
            "POSITION": 95,
            "TANGENT": 97,
            "TEXCOORD_0": 98
          },
          "indices": 99,
          "material": 0,
          "mode": 4
        }
      ]
    },
    {
      "name": "defaultMaterial",
      "primitives": [
        {
          "attributes": {
            "NORMAL": 101,
            "POSITION": 100,
            "TANGENT": 102,
            "TEXCOORD_0": 103
          },
          "indices": 104,
          "material": 0,
          "mode": 4
        }
      ]
    },
    {
      "name": "defaultMaterial",
      "primitives": [
        {
          "attributes": {
            "NORMAL": 106,
            "POSITION": 105,
            "TANGENT": 107,
            "TEXCOORD_0": 108
          },
          "indices": 109,
          "material": 0,
          "mode": 4
        }
      ]
    },
    {
      "name": "defaultMaterial",
      "primitives": [
        {
          "attributes": {
            "NORMAL": 111,
            "POSITION": 110,
            "TANGENT": 112,
            "TEXCOORD_0": 113
          },
          "indices": 114,
          "material": 0,
          "mode": 4
        }
      ]
    }
  ],
  "nodes": [
    {
      "children": [
        1
      ],
      "matrix": [
        1.0,
        0.0,
        0.0,
        0.0,
        0.0,
        2.220446049250313e-16,
        -1.0,
        0.0,
        0.0,
        1.0,
        2.220446049250313e-16,
        0.0,
        0.0,
        0.0,
        0.0,
        1.0
      ],
      "name": "Sketchfab_model"
    },
    {
      "children": [
        2,
        4,
        6,
        8,
        10,
        12,
        14,
        16,
        18,
        20,
        22,
        24,
        26,
        28,
        30,
        32,
        34,
        36,
        38,
        40,
        42,
        44,
        46
      ],
      "matrix": [
        1.0,
        0.0,
        0.0,
        0.0,
        0.0,
        -4.371139006309477e-08,
        0.999999999999999,
        0.0,
        0.0,
        -0.999999999999999,
        -4.371139006309477e-08,
        0.0,
        0.0,
        0.0,
        0.0,
        1.0
      ],
      "name": "Collada visual scene group"
    },
    {
      "children": [
        3
      ],
      "name": "g"
    },
    {
      "mesh": 0,
      "name": "defaultMaterial"
    },
    {
      "children": [
        5
      ],
      "name": "g"
    },
    {
      "mesh": 1,
      "name": "defaultMaterial"
    },
    {
      "children": [
        7
      ],
      "name": "g"
    },
    {
      "mesh": 2,
      "name": "defaultMaterial"
    },
    {
      "children": [
        9
      ],
      "name": "g"
    },
    {
      "mesh": 3,
      "name": "defaultMaterial"
    },
    {
      "children": [
        11
      ],
      "name": "g"
    },
    {
      "mesh": 4,
      "name": "defaultMaterial"
    },
    {
      "children": [
        13
      ],
      "name": "g"
    },
    {
      "mesh": 5,
      "name": "defaultMaterial"
    },
    {
      "children": [
        15
      ],
      "name": "g"
    },
    {
      "mesh": 6,
      "name": "defaultMaterial"
    },
    {
      "children": [
        17
      ],
      "name": "g"
    },
    {
      "mesh": 7,
      "name": "defaultMaterial"
    },
    {
      "children": [
        19
      ],
      "name": "g"
    },
    {
      "mesh": 8,
      "name": "defaultMaterial"
    },
    {
      "children": [
        21
      ],
      "name": "g"
    },
    {
      "mesh": 9,
      "name": "defaultMaterial"
    },
    {
      "children": [
        23
      ],
      "name": "g"
    },
    {
      "mesh": 10,
      "name": "defaultMaterial"
    },
    {
      "children": [
        25
      ],
      "name": "g"
    },
    {
      "mesh": 11,
      "name": "defaultMaterial"
    },
    {
      "children": [
        27
      ],
      "name": "g"
    },
    {
      "mesh": 12,
      "name": "defaultMaterial"
    },
    {
      "children": [
        29
      ],
      "name": "g"
    },
    {
      "mesh": 13,
      "name": "defaultMaterial"
    },
    {
      "children": [
        31
      ],
      "name": "g"
    },
    {
      "mesh": 14,
      "name": "defaultMaterial"
    },
    {
      "children": [
        33
      ],
      "name": "g"
    },
    {
      "mesh": 15,
      "name": "defaultMaterial"
    },
    {
      "children": [
        35
      ],
      "name": "g"
    },
    {
      "mesh": 16,
      "name": "defaultMaterial"
    },
    {
      "children": [
        37
      ],
      "name": "g"
    },
    {
      "mesh": 17,
      "name": "defaultMaterial"
    },
    {
      "children": [
        39
      ],
      "name": "g"
    },
    {
      "mesh": 18,
      "name": "defaultMaterial"
    },
    {
      "children": [
        41
      ],
      "name": "g"
    },
    {
      "mesh": 19,
      "name": "defaultMaterial"
    },
    {
      "children": [
        43
      ],
      "name": "g"
    },
    {
      "mesh": 20,
      "name": "defaultMaterial"
    },
    {
      "children": [
        45
      ],
      "name": "g"
    },
    {
      "mesh": 21,
      "name": "defaultMaterial"
    },
    {
      "children": [
        47
      ],
      "name": "g"
    },
    {
      "mesh": 22,
      "name": "defaultMaterial"
    }
  ],
  "samplers": [
    {
      "magFilter": 9729,
      "minFilter": 9987,
      "wrapS": 10497,
      "wrapT": 10497
    }
  ],
  "scene": 0,
  "scenes": [
    {
      "name": "Sketchfab_Scene",
      "nodes": [
        0
      ]
    }
  ],
  "textures": [
    {
      "sampler": 0,
      "source": 0
    },
    {
      "sampler": 0,
      "source": 1
    },
    {
      "sampler": 0,
      "source": 2
    },
    {
      "sampler": 0,
      "source": 3
    }
  ]
}
